{"glyphs":{"0":{"ha":900,"x_min":49,"x_max":851,"o":"m 450 -17 q 242 48 332 -17 q 100 226 151 113 q 49 486 49 339 q 100 747 49 633 q 241 924 151 860 q 449 989 331 989 q 658 924 567 989 q 800 747 749 860 q 851 486 851 633 q 800 226 851 339 q 658 48 749 113 q 450 -17 568 -17 m 450 156 q 562 198 513 156 q 639 315 611 240 q 667 486 667 389 q 639 658 667 583 q 562 776 611 733 q 449 818 513 818 q 338 776 386 818 q 262 658 289 733 q 235 486 235 583 q 262 315 235 389 q 338 198 289 240 q 450 156 388 156 z "},"1":{"ha":586,"x_min":65,"x_max":453,"o":"m 271 0 l 271 729 q 190 685 231 703 q 65 665 131 660 l 65 838 q 140 855 100 835 q 220 908 181 875 q 289 974 260 940 l 290 972 l 453 972 l 453 0 l 271 0 z "},"2":{"ha":804,"x_min":33,"x_max":743,"o":"m 71 0 l 71 140 q 96 229 71 181 q 165 326 121 278 q 269 417 210 375 l 417 522 q 474 569 447 543 q 519 627 501 596 q 536 688 536 658 q 519 753 536 724 q 468 799 501 782 q 386 815 435 815 q 312 799 344 815 q 258 754 279 782 q 229 694 238 726 l 33 728 q 93 857 47 797 q 213 953 139 917 q 382 990 288 990 q 568 951 490 990 q 688 845 646 913 q 731 689 731 778 q 681 528 731 599 q 546 397 632 458 l 414 301 q 344 240 374 274 q 300 167 315 207 l 743 167 l 743 0 l 71 0 z "},"3":{"ha":772,"x_min":54,"x_max":719,"o":"m 390 -17 q 235 9 304 -17 q 119 83 165 35 q 54 196 72 131 l 229 247 q 256 206 239 231 q 301 165 272 182 q 378 149 331 149 q 488 187 447 149 q 529 286 529 225 q 508 360 529 328 q 441 409 488 392 q 319 426 394 426 l 261 426 l 261 582 l 319 582 q 464 615 417 582 q 511 707 511 649 q 494 767 511 740 q 447 808 478 793 q 376 824 417 824 q 322 815 350 824 q 272 785 294 806 q 235 728 249 765 l 63 779 q 130 894 82 847 q 244 965 178 940 q 382 989 311 989 q 544 955 472 989 q 658 861 617 921 q 700 724 700 801 q 668 608 700 657 q 582 526 636 560 q 546 507 564 517 q 600 478 575 494 q 688 385 656 439 q 719 264 719 332 q 674 113 719 176 q 553 17 628 50 q 390 -17 478 -17 z "},"4":{"ha":879,"x_min":36,"x_max":838,"o":"m 489 0 l 489 192 l 36 192 l 36 343 l 467 972 l 668 972 l 668 354 l 838 354 l 838 192 l 668 192 l 668 0 l 489 0 m 232 354 l 489 354 l 489 731 l 232 354 z "},"5":{"ha":807,"x_min":61,"x_max":754,"o":"m 407 -17 q 270 6 340 -17 q 144 72 200 28 q 61 182 88 117 l 235 233 q 308 168 265 189 q 396 147 350 147 q 513 191 468 147 q 558 308 558 235 q 515 422 558 376 q 399 468 471 468 q 319 449 356 468 q 264 403 283 429 l 93 440 l 151 972 l 701 972 l 701 800 l 314 800 l 286 567 q 369 601 324 588 q 468 613 415 614 q 613 574 547 613 q 716 470 678 536 q 754 317 754 404 q 710 143 754 218 q 588 26 665 68 q 407 -17 510 -17 z "},"6":{"ha":806,"x_min":51,"x_max":764,"o":"m 415 -17 q 248 19 317 -17 q 135 117 179 54 q 72 262 92 179 q 51 440 51 344 q 75 651 51 551 q 147 826 99 750 q 269 946 194 903 q 450 989 344 989 q 599 967 526 989 q 731 903 672 944 l 636 764 q 544 808 593 794 q 453 822 494 822 q 285 728 346 822 q 229 524 239 657 q 288 578 254 554 q 446 624 354 624 q 610 581 539 624 q 723 463 682 538 q 764 297 764 389 q 721 135 764 207 q 599 24 678 64 q 415 -17 521 -17 m 415 144 q 438 144 415 144 q 497 165 461 144 q 554 222 533 186 q 575 306 575 258 q 554 390 575 353 q 497 448 533 426 q 415 469 461 469 q 333 448 369 469 q 275 390 296 426 q 254 306 254 353 q 275 222 254 258 q 333 165 296 186 q 415 144 369 144 z "},"7":{"ha":772,"x_min":46,"x_max":731,"o":"m 129 0 l 521 799 l 46 799 l 46 972 l 731 972 l 731 832 l 340 0 l 129 0 z "},"8":{"ha":850,"x_min":58,"x_max":792,"o":"m 424 -17 q 225 17 307 -17 q 101 112 143 51 q 58 253 58 172 q 101 404 58 339 q 225 507 143 469 q 228 508 226 508 q 131 592 165 540 q 90 725 90 649 q 130 863 90 803 q 244 956 169 922 q 424 989 319 989 q 604 956 529 989 q 719 863 679 922 q 760 725 760 803 q 719 592 760 649 q 621 508 683 540 q 624 507 622 508 q 749 404 706 469 q 792 253 792 339 q 749 112 792 172 q 624 17 706 51 q 424 -17 542 -17 m 424 142 q 549 180 500 142 q 597 278 597 218 q 549 383 597 343 q 424 424 500 424 q 335 406 374 424 q 275 354 297 388 q 253 278 253 321 q 275 207 253 238 q 335 159 297 176 q 424 142 374 142 m 424 575 q 533 611 490 575 q 575 703 575 647 q 533 799 575 763 q 424 836 490 836 q 317 799 358 836 q 275 703 275 763 q 317 611 275 647 q 424 575 358 575 z "},"9":{"ha":806,"x_min":42,"x_max":754,"o":"m 390 988 q 558 952 489 988 q 670 854 626 917 q 734 709 714 792 q 754 532 754 626 q 731 320 754 419 q 659 145 707 221 q 536 26 611 69 q 356 -18 461 -18 q 206 5 279 -18 q 75 68 133 28 l 168 207 q 262 163 213 178 q 351 149 311 149 q 522 244 460 149 q 576 449 568 315 q 518 394 551 417 q 358 347 451 347 q 194 391 267 347 q 82 508 122 435 q 42 675 42 582 q 85 837 42 767 q 206 947 128 907 q 390 988 285 988 m 390 828 q 367 828 390 828 q 308 807 344 828 q 251 750 272 786 q 231 667 231 714 q 251 582 231 619 q 308 524 272 544 q 390 503 344 503 q 472 524 436 503 q 530 582 508 544 q 551 667 551 619 q 530 750 551 714 q 472 807 508 786 q 390 828 436 828 z "},"A":{"ha":992,"x_min":11,"x_max":981,"o":"m 779 0 l 697 214 l 294 214 l 213 0 l 11 0 l 394 972 l 597 972 l 981 0 l 779 0 m 496 740 l 358 382 l 633 382 l 496 740 z "},"Á":{"ha":992,"x_min":11,"x_max":981,"o":"m 779 0 l 697 214 l 294 214 l 213 0 l 11 0 l 394 972 l 597 972 l 981 0 l 779 0 m 496 740 l 358 382 l 633 382 l 496 740 m 379 1038 l 538 1219 l 743 1219 l 564 1038 l 379 1038 z "},"Ă":{"ha":992,"x_min":11,"x_max":981,"o":"m 779 0 l 697 214 l 294 214 l 213 0 l 11 0 l 394 972 l 597 972 l 981 0 l 779 0 m 496 740 l 358 382 l 633 382 l 496 740 m 497 1029 q 363 1055 422 1029 q 271 1127 304 1081 q 238 1233 238 1174 l 407 1233 q 433 1179 407 1200 q 497 1158 458 1158 q 561 1179 536 1158 q 586 1233 586 1200 l 756 1233 q 722 1127 756 1174 q 631 1055 689 1081 q 497 1029 574 1029 z "},"Â":{"ha":992,"x_min":11,"x_max":981,"o":"m 779 0 l 697 214 l 294 214 l 213 0 l 11 0 l 394 972 l 597 972 l 981 0 l 779 0 m 496 740 l 358 382 l 633 382 l 496 740 m 592 1057 l 492 1151 l 390 1057 l 224 1057 l 396 1250 l 586 1250 l 758 1057 l 592 1057 z "},"Ä":{"ha":992,"x_min":11,"x_max":981,"o":"m 779 0 l 697 214 l 294 214 l 213 0 l 11 0 l 394 972 l 597 972 l 981 0 l 779 0 m 496 740 l 358 382 l 633 382 l 496 740 m 675 1085 q 609 1114 638 1085 q 581 1181 581 1143 q 609 1248 581 1219 q 675 1276 638 1276 q 742 1248 714 1276 q 771 1181 771 1219 q 742 1114 771 1143 q 675 1085 714 1085 m 317 1085 q 249 1113 278 1085 q 221 1181 221 1142 q 249 1249 221 1221 q 317 1276 278 1276 q 383 1249 356 1276 q 411 1181 411 1221 q 383 1113 411 1142 q 317 1085 356 1085 z "},"À":{"ha":992,"x_min":11,"x_max":981,"o":"m 779 0 l 697 214 l 294 214 l 213 0 l 11 0 l 394 972 l 597 972 l 981 0 l 779 0 m 496 740 l 358 382 l 633 382 l 496 740 m 463 1042 l 281 1235 l 486 1235 l 647 1042 l 463 1042 z "},"Å":{"ha":992,"x_min":11,"x_max":981,"o":"m 779 0 l 697 214 l 294 214 l 213 0 l 11 0 l 394 972 l 597 972 l 981 0 l 779 0 m 496 740 l 358 382 l 633 382 l 496 740 m 496 1008 q 414 1029 451 1008 q 354 1085 376 1050 q 332 1163 332 1119 q 354 1242 332 1207 q 414 1297 376 1276 q 496 1318 451 1318 q 577 1297 540 1318 q 636 1242 614 1276 q 658 1163 658 1207 q 636 1085 658 1119 q 577 1029 614 1050 q 496 1008 540 1008 m 496 1114 q 543 1163 543 1114 q 496 1213 543 1213 q 447 1163 447 1213 q 496 1114 447 1114 z "},"Ã":{"ha":992,"x_min":11,"x_max":981,"o":"m 779 0 l 697 214 l 294 214 l 213 0 l 11 0 l 394 972 l 597 972 l 981 0 l 779 0 m 496 740 l 358 382 l 633 382 l 496 740 m 610 1024 q 537 1039 564 1024 q 494 1074 510 1054 q 465 1108 479 1093 q 431 1124 451 1124 q 402 1114 414 1124 q 382 1071 390 1104 l 258 1071 q 285 1166 265 1128 q 341 1224 306 1204 q 425 1243 376 1243 q 501 1228 474 1243 q 544 1193 528 1213 q 575 1158 561 1174 q 610 1143 589 1143 q 640 1158 631 1143 q 651 1197 649 1174 l 775 1197 q 726 1072 765 1119 q 610 1024 686 1024 z "},"Æ":{"ha":1414,"x_min":11,"x_max":1322,"o":"m 11 0 l 561 972 l 1317 972 l 1317 799 l 896 799 l 896 578 l 1258 578 l 1258 408 l 896 408 l 896 174 l 1322 174 l 1322 0 l 701 0 l 701 214 l 349 214 l 226 0 l 11 0 m 436 382 l 701 382 l 701 799 l 669 799 l 436 382 z "},"B":{"ha":850,"x_min":106,"x_max":801,"o":"m 106 0 l 106 972 l 435 972 q 610 942 535 972 q 726 849 685 911 q 768 696 768 788 q 740 591 768 639 q 660 508 711 543 q 765 416 728 474 q 801 278 801 358 q 761 126 801 189 q 649 32 721 64 q 479 0 576 0 l 106 0 m 292 168 l 461 168 q 568 202 529 168 q 607 293 607 236 q 564 387 607 353 q 446 421 521 421 l 292 421 l 292 168 m 292 576 l 439 576 q 538 608 501 576 q 574 699 574 640 q 533 789 574 757 q 424 821 493 821 l 292 821 l 292 576 z "},"C":{"ha":1007,"x_min":49,"x_max":972,"o":"m 535 -17 q 283 48 393 -17 q 111 226 174 113 q 49 486 49 339 q 111 747 49 633 q 283 924 174 860 q 533 989 392 989 q 719 953 633 989 q 870 855 806 918 q 969 710 935 792 l 793 644 q 731 734 769 696 q 642 794 692 772 q 533 815 592 815 q 383 773 449 815 q 280 657 317 731 q 243 486 243 583 q 281 315 243 389 q 385 198 318 240 q 538 156 451 156 q 647 178 597 156 q 734 242 696 201 q 796 335 772 282 l 972 271 q 873 121 938 186 q 722 19 808 56 q 535 -17 636 -17 z "},"Ç":{"ha":1007,"x_min":49,"x_max":972,"o":"m 476 -292 q 413 -282 446 -292 q 343 -251 379 -272 l 371 -164 q 412 -182 392 -175 q 449 -189 432 -189 q 489 -181 472 -189 q 506 -151 506 -172 q 483 -110 506 -124 q 415 -93 460 -96 l 449 -10 q 283 49 358 4 q 111 226 174 113 q 49 486 49 339 q 111 747 49 633 q 283 924 174 860 q 533 989 392 989 q 719 953 633 989 q 870 855 806 918 q 969 710 935 792 l 793 644 q 731 734 769 696 q 642 794 692 772 q 533 815 592 815 q 383 773 449 815 q 280 657 317 731 q 243 486 243 583 q 281 315 243 389 q 385 198 318 240 q 538 156 451 156 q 647 178 597 156 q 734 242 696 201 q 796 335 772 282 l 972 271 q 873 121 938 186 q 722 19 808 56 q 556 -17 644 -12 l 544 -40 q 617 -88 593 -57 q 642 -157 642 -119 q 600 -254 642 -217 q 476 -292 558 -292 z "},"D":{"ha":972,"x_min":106,"x_max":924,"o":"m 106 0 l 106 972 l 417 972 q 680 910 565 972 q 859 738 794 847 q 924 486 924 629 q 859 235 924 344 q 680 63 794 125 q 417 0 565 0 l 106 0 m 296 178 l 417 178 q 540 201 483 178 q 640 267 597 225 q 706 365 682 308 q 729 486 729 421 q 706 608 729 551 q 640 706 682 664 q 540 771 597 747 q 417 794 483 794 l 296 794 l 296 178 z "},"Ð":{"ha":1036,"x_min":78,"x_max":988,"o":"m 78 417 l 78 556 l 169 556 l 169 972 l 481 972 q 744 910 629 972 q 923 738 858 847 q 988 486 988 629 q 923 235 988 344 q 744 63 858 125 q 481 0 629 0 l 169 0 l 169 417 l 78 417 m 360 178 l 481 178 q 604 201 547 178 q 703 267 661 225 q 769 365 746 308 q 793 486 793 421 q 769 608 793 551 q 703 706 746 664 q 604 771 661 747 q 481 794 547 794 l 360 794 l 360 556 l 535 556 l 535 417 l 360 417 l 360 178 z "},"E":{"ha":818,"x_min":106,"x_max":726,"o":"m 106 0 l 106 972 l 721 972 l 721 799 l 296 799 l 296 578 l 663 578 l 663 408 l 296 408 l 296 174 l 726 174 l 726 0 l 106 0 z "},"É":{"ha":818,"x_min":106,"x_max":726,"o":"m 106 0 l 106 972 l 721 972 l 721 799 l 296 799 l 296 578 l 663 578 l 663 408 l 296 408 l 296 174 l 726 174 l 726 0 l 106 0 m 294 1038 l 451 1219 l 657 1219 l 478 1038 l 294 1038 z "},"Ê":{"ha":818,"x_min":106,"x_max":726,"o":"m 106 0 l 106 972 l 721 972 l 721 799 l 296 799 l 296 578 l 663 578 l 663 408 l 296 408 l 296 174 l 726 174 l 726 0 l 106 0 m 507 1057 l 407 1151 l 306 1057 l 139 1057 l 311 1250 l 501 1250 l 674 1057 l 507 1057 z "},"Ë":{"ha":818,"x_min":106,"x_max":726,"o":"m 106 0 l 106 972 l 721 972 l 721 799 l 296 799 l 296 578 l 663 578 l 663 408 l 296 408 l 296 174 l 726 174 l 726 0 l 106 0 m 590 1085 q 524 1114 553 1085 q 496 1181 496 1143 q 524 1248 496 1219 q 590 1276 553 1276 q 658 1248 629 1276 q 686 1181 686 1219 q 658 1114 686 1143 q 590 1085 629 1085 m 232 1085 q 165 1113 193 1085 q 136 1181 136 1142 q 165 1249 136 1221 q 232 1276 193 1276 q 299 1249 271 1276 q 326 1181 326 1221 q 299 1113 326 1142 q 232 1085 271 1085 z "},"È":{"ha":818,"x_min":106,"x_max":726,"o":"m 106 0 l 106 972 l 721 972 l 721 799 l 296 799 l 296 578 l 663 578 l 663 408 l 296 408 l 296 174 l 726 174 l 726 0 l 106 0 m 378 1042 l 196 1235 l 401 1235 l 563 1042 l 378 1042 z "},"F":{"ha":769,"x_min":106,"x_max":729,"o":"m 106 0 l 106 972 l 729 972 l 729 799 l 296 799 l 296 565 l 657 565 l 657 392 l 296 392 l 296 0 l 106 0 z "},"G":{"ha":1032,"x_min":49,"x_max":997,"o":"m 557 -17 q 294 48 408 -17 q 114 226 179 113 q 49 486 49 339 q 114 747 49 633 q 294 924 179 860 q 557 989 408 989 q 721 963 646 989 q 853 890 796 936 q 950 783 911 843 l 794 686 q 733 753 771 724 q 649 799 694 782 q 557 815 603 815 q 394 773 465 815 q 283 657 324 731 q 243 486 243 583 q 283 315 243 390 q 394 198 322 240 q 561 156 467 156 q 692 185 635 156 q 783 267 750 214 q 817 372 813 313 l 589 372 l 589 521 l 997 521 l 997 403 l 997 403 q 942 182 994 274 q 785 34 885 85 q 557 -17 686 -17 z "},"H":{"ha":1042,"x_min":106,"x_max":936,"o":"m 746 0 l 746 410 l 296 410 l 296 0 l 106 0 l 106 974 l 296 974 l 296 585 l 746 585 l 746 972 l 936 972 l 936 0 l 746 0 z "},"I":{"ha":401,"x_min":106,"x_max":296,"o":"m 106 0 l 106 972 l 296 972 l 296 0 l 106 0 z "},"Í":{"ha":401,"x_min":86,"x_max":449,"o":"m 106 0 l 106 972 l 296 972 l 296 0 l 106 0 m 86 1038 l 243 1219 l 449 1219 l 269 1038 l 86 1038 z "},"Î":{"ha":401,"x_min":-69,"x_max":465,"o":"m 106 0 l 106 972 l 296 972 l 296 0 l 106 0 m 299 1057 l 199 1151 l 97 1057 l -69 1057 l 103 1250 l 293 1250 l 465 1057 l 299 1057 z "},"Ï":{"ha":422,"x_min":-1,"x_max":424,"o":"m 328 1085 q 261 1114 290 1085 q 232 1181 232 1143 q 261 1248 232 1219 q 328 1276 290 1276 q 395 1248 367 1276 q 424 1181 424 1219 q 395 1114 424 1143 q 328 1085 367 1085 m 94 1085 q 27 1113 56 1085 q -1 1181 -1 1142 q 27 1249 -1 1221 q 94 1276 56 1276 q 162 1249 133 1276 q 190 1181 190 1221 q 162 1113 190 1142 q 94 1085 133 1085 m 106 0 l 106 972 l 296 972 l 296 0 l 106 0 z "},"Ì":{"ha":401,"x_min":-12,"x_max":353,"o":"m 106 0 l 106 972 l 296 972 l 296 0 l 106 0 m 168 1042 l -14 1235 l 192 1235 l 353 1042 l 168 1042 z "},"J":{"ha":767,"x_min":11,"x_max":675,"o":"m 321 -19 q 195 3 250 -19 q 102 63 140 26 q 42 140 64 99 q 11 221 19 182 l 172 282 q 231 188 194 221 q 324 154 268 154 q 403 174 365 154 q 463 236 440 193 q 486 347 486 279 l 486 972 l 675 972 l 675 292 q 649 162 675 219 q 574 64 622 104 q 462 2 526 24 q 321 -19 397 -19 z "},"K":{"ha":925,"x_min":106,"x_max":914,"o":"m 106 0 l 106 972 l 293 972 l 293 588 l 653 972 l 899 972 l 489 533 l 914 0 l 679 0 l 365 401 l 293 325 l 293 0 l 106 0 z "},"L":{"ha":746,"x_min":106,"x_max":724,"o":"m 106 0 l 106 972 l 296 972 l 296 174 l 724 174 l 724 0 l 106 0 z "},"M":{"ha":1190,"x_min":106,"x_max":1085,"o":"m 106 0 l 106 972 l 313 972 l 596 553 l 879 972 l 1085 972 l 1085 0 l 896 0 l 896 675 l 596 233 l 296 674 l 296 0 l 106 0 z "},"N":{"ha":1074,"x_min":106,"x_max":968,"o":"m 106 0 l 106 972 l 304 972 l 779 319 l 779 972 l 968 972 l 968 0 l 779 0 l 296 665 l 296 0 l 106 0 z "},"Ñ":{"ha":1074,"x_min":106,"x_max":968,"o":"m 106 0 l 106 972 l 304 972 l 779 319 l 779 972 l 968 972 l 968 0 l 779 0 l 296 665 l 296 0 l 106 0 m 647 1007 q 574 1022 601 1007 q 532 1057 547 1038 q 503 1092 517 1076 q 468 1107 489 1107 q 440 1097 451 1107 q 419 1054 428 1088 l 296 1054 q 323 1149 303 1111 q 378 1207 343 1188 q 463 1226 414 1226 q 538 1211 511 1226 q 582 1176 565 1196 q 613 1142 599 1157 q 647 1126 626 1126 q 677 1142 668 1126 q 689 1181 686 1157 l 813 1181 q 763 1055 803 1103 q 647 1007 724 1007 z "},"O":{"ha":1093,"x_min":49,"x_max":1044,"o":"m 550 -17 q 290 48 403 -17 q 113 226 176 113 q 49 485 49 339 q 113 747 49 633 q 288 924 176 860 q 546 988 400 988 q 805 923 693 988 q 981 745 917 858 q 1044 485 1044 632 q 981 226 1044 339 q 806 48 918 113 q 550 -17 694 -17 m 550 157 q 706 199 639 157 q 812 315 774 242 q 850 485 850 389 q 811 656 850 582 q 704 772 772 729 q 546 814 636 814 q 390 772 458 814 q 282 656 321 729 q 243 485 243 582 q 282 315 243 389 q 390 199 321 242 q 550 157 460 157 z "},"Ó":{"ha":1093,"x_min":49,"x_max":1044,"o":"m 550 -17 q 290 48 403 -17 q 113 226 176 113 q 49 485 49 339 q 113 747 49 633 q 288 924 176 860 q 546 988 400 988 q 805 923 693 988 q 981 745 917 858 q 1044 485 1044 632 q 981 226 1044 339 q 806 48 918 113 q 550 -17 694 -17 m 550 157 q 706 199 639 157 q 812 315 774 242 q 850 485 850 389 q 811 656 850 582 q 704 772 772 729 q 546 814 636 814 q 390 772 458 814 q 282 656 321 729 q 243 485 243 582 q 282 315 243 389 q 390 199 321 242 q 550 157 460 157 m 428 1038 l 589 1219 l 797 1219 l 614 1038 l 428 1038 z "},"Ô":{"ha":1093,"x_min":49,"x_max":1044,"o":"m 550 -17 q 290 48 403 -17 q 113 226 176 113 q 49 485 49 339 q 113 747 49 633 q 288 924 176 860 q 546 988 400 988 q 805 923 693 988 q 981 745 917 858 q 1044 485 1044 632 q 981 226 1044 339 q 806 48 918 113 q 550 -17 694 -17 m 550 157 q 706 199 639 157 q 812 315 774 242 q 850 485 850 389 q 811 656 850 582 q 704 772 772 729 q 546 814 636 814 q 390 772 458 814 q 282 656 321 729 q 243 485 243 582 q 282 315 243 389 q 390 199 321 242 q 550 157 460 157 m 643 1057 l 543 1151 l 442 1057 l 275 1057 l 447 1250 l 638 1250 l 810 1057 l 643 1057 z "},"Ö":{"ha":1093,"x_min":49,"x_max":1044,"o":"m 550 -17 q 290 48 403 -17 q 113 226 176 113 q 49 485 49 339 q 113 747 49 633 q 288 924 176 860 q 546 988 400 988 q 805 923 693 988 q 981 745 917 858 q 1044 485 1044 632 q 981 226 1044 339 q 806 48 918 113 q 550 -17 694 -17 m 550 157 q 706 199 639 157 q 812 315 774 242 q 850 485 850 389 q 811 656 850 582 q 704 772 772 729 q 546 814 636 814 q 390 772 458 814 q 282 656 321 729 q 243 485 243 582 q 282 315 243 389 q 390 199 321 242 q 550 157 460 157 m 726 1085 q 660 1114 689 1085 q 632 1181 632 1143 q 660 1248 632 1219 q 726 1276 689 1276 q 794 1248 765 1276 q 822 1181 822 1219 q 794 1114 822 1143 q 726 1085 765 1085 m 368 1085 q 301 1113 329 1085 q 272 1181 272 1142 q 301 1249 272 1221 q 368 1276 329 1276 q 435 1249 407 1276 q 463 1181 463 1221 q 435 1113 463 1142 q 368 1085 407 1085 z "},"Ò":{"ha":1093,"x_min":49,"x_max":1044,"o":"m 550 -17 q 290 48 403 -17 q 113 226 176 113 q 49 485 49 339 q 113 747 49 633 q 288 924 176 860 q 546 988 400 988 q 805 923 693 988 q 981 745 917 858 q 1044 485 1044 632 q 981 226 1044 339 q 806 48 918 113 q 550 -17 694 -17 m 550 157 q 706 199 639 157 q 812 315 774 242 q 850 485 850 389 q 811 656 850 582 q 704 772 772 729 q 546 814 636 814 q 390 772 458 814 q 282 656 321 729 q 243 485 243 582 q 282 315 243 389 q 390 199 321 242 q 550 157 460 157 m 513 1042 l 331 1235 l 536 1235 l 697 1042 l 513 1042 z "},"Ø":{"ha":1097,"x_min":43,"x_max":1056,"o":"m 43 0 l 168 144 q 111 226 136 182 q 47 485 47 339 q 111 747 47 633 q 287 924 175 860 q 544 988 399 988 q 804 924 692 988 q 829 907 817 915 l 885 972 l 1056 972 l 925 822 q 979 746 956 788 q 1043 485 1043 632 q 980 226 1043 339 q 805 48 917 113 q 549 -17 693 -17 q 289 49 401 -17 q 265 61 276 54 l 213 0 l 43 0 m 294 290 l 708 768 q 703 772 706 769 q 544 814 635 814 q 388 772 457 814 q 281 656 319 729 q 242 485 242 582 q 281 315 242 389 q 294 290 288 303 m 549 157 q 705 199 638 157 q 810 315 772 242 q 849 485 849 389 q 810 656 849 582 q 799 675 804 665 l 386 201 q 389 200 388 200 q 549 157 458 157 z "},"Õ":{"ha":1093,"x_min":49,"x_max":1044,"o":"m 550 -17 q 290 48 403 -17 q 113 226 176 113 q 49 485 49 339 q 113 747 49 633 q 288 924 176 860 q 546 988 400 988 q 805 923 693 988 q 981 745 917 858 q 1044 485 1044 632 q 981 226 1044 339 q 806 48 918 113 q 550 -17 694 -17 m 550 157 q 706 199 639 157 q 812 315 774 242 q 850 485 850 389 q 811 656 850 582 q 704 772 772 729 q 546 814 636 814 q 390 772 458 814 q 282 656 321 729 q 243 485 243 582 q 282 315 243 389 q 390 199 321 242 q 550 157 460 157 m 660 1024 q 587 1039 614 1024 q 544 1074 560 1054 q 515 1108 529 1093 q 481 1124 501 1124 q 452 1114 464 1124 q 432 1071 440 1104 l 308 1071 q 335 1166 315 1128 q 391 1224 356 1204 q 475 1243 426 1243 q 551 1228 524 1243 q 594 1193 578 1213 q 625 1158 611 1174 q 660 1143 639 1143 q 690 1158 681 1143 q 701 1197 699 1174 l 825 1197 q 776 1072 815 1119 q 660 1024 736 1024 z "},"Œ":{"ha":1547,"x_min":49,"x_max":1456,"o":"m 550 -19 q 290 45 403 -19 q 113 224 176 110 q 49 486 49 338 q 113 747 49 633 q 288 926 176 861 q 546 990 400 990 q 779 929 678 990 q 835 888 808 910 l 835 972 l 1449 972 l 1449 799 l 1024 799 l 1024 578 l 1390 578 l 1390 408 l 1024 408 l 1024 174 l 1456 174 l 1456 0 l 835 0 l 835 86 q 779 44 808 63 q 550 -19 679 -19 m 550 160 q 698 199 633 160 q 799 312 763 239 q 835 486 835 385 q 798 660 835 586 q 696 773 761 733 q 546 813 631 813 q 391 771 458 813 q 285 655 324 729 q 247 486 247 581 q 285 317 247 390 q 392 201 324 243 q 550 160 461 160 z "},"P":{"ha":838,"x_min":106,"x_max":817,"o":"m 106 0 l 106 972 l 467 972 q 649 931 569 972 q 772 817 728 890 q 817 649 817 744 q 774 481 817 554 q 656 365 731 407 q 482 322 581 322 l 296 322 l 296 0 l 106 0 m 296 497 l 478 497 q 583 540 542 497 q 624 649 624 582 q 578 757 624 715 q 463 799 533 799 l 296 799 l 296 497 z "},"Þ":{"ha":854,"x_min":114,"x_max":829,"o":"m 114 1 l 114 974 l 308 974 l 308 822 l 479 822 q 661 781 582 822 q 785 667 740 740 q 829 499 829 594 q 786 331 829 404 q 668 215 743 257 q 494 174 593 174 l 308 174 l 308 1 l 114 1 m 308 650 l 308 347 l 486 347 q 591 390 550 347 q 632 499 632 432 q 587 608 632 565 q 471 650 542 650 l 308 650 z "},"Q":{"ha":1096,"x_min":49,"x_max":1044,"o":"m 550 -17 q 290 48 403 -17 q 113 226 176 113 q 49 486 49 339 q 85 688 49 596 q 188 848 122 781 q 345 952 254 915 q 546 989 436 989 q 805 924 693 989 q 981 747 917 860 q 1044 485 1044 633 q 982 226 1044 339 q 936 158 961 190 l 1033 60 l 914 -58 l 808 49 q 807 49 807 49 q 550 -17 694 -17 m 550 157 q 676 183 619 157 l 556 306 l 678 421 l 801 296 q 813 315 807 306 q 850 486 850 389 q 811 656 850 582 q 704 773 772 731 q 546 815 636 815 q 390 773 458 815 q 282 656 321 731 q 243 486 243 582 q 282 315 243 389 q 390 199 321 242 q 550 157 460 157 z "},"R":{"ha":896,"x_min":106,"x_max":856,"o":"m 106 0 l 106 972 l 467 972 q 649 932 569 972 q 772 822 728 892 q 817 658 817 751 q 770 495 817 567 q 643 385 724 424 q 631 378 636 381 l 856 0 l 640 0 l 442 344 l 296 344 l 296 0 l 106 0 m 296 518 l 468 518 q 545 536 511 518 q 599 586 579 554 q 619 658 619 618 q 574 760 619 721 q 458 799 529 799 l 296 799 l 296 518 z "},"S":{"ha":843,"x_min":56,"x_max":786,"o":"m 432 -17 q 294 1 358 -17 q 181 52 231 19 q 98 125 131 85 q 56 210 65 165 l 242 265 q 306 184 260 218 q 421 149 351 150 q 541 181 494 147 q 588 267 588 214 q 551 344 588 313 q 450 392 514 375 l 324 425 q 199 480 253 443 q 114 571 144 517 q 83 697 83 625 q 174 912 83 835 q 432 989 265 989 q 595 962 525 989 q 713 885 665 935 q 785 767 760 835 l 600 710 q 539 790 583 757 q 426 824 494 824 q 317 792 357 824 q 278 701 278 760 q 309 629 278 656 q 394 589 340 603 l 522 557 q 717 447 647 526 q 786 271 786 368 q 744 120 786 185 q 624 19 703 56 q 432 -17 544 -17 z "},"T":{"ha":811,"x_min":19,"x_max":792,"o":"m 311 0 l 311 799 l 19 799 l 19 972 l 792 972 l 792 799 l 501 799 l 501 0 l 311 0 z "},"U":{"ha":978,"x_min":92,"x_max":886,"o":"m 486 -19 q 276 28 365 -19 q 140 160 188 75 q 92 363 92 246 l 92 972 l 282 972 l 282 363 q 308 253 282 300 q 380 182 333 207 q 489 157 426 157 q 598 182 551 157 q 670 253 644 207 q 696 363 696 300 l 696 972 l 886 972 l 886 363 q 837 160 886 246 q 698 28 788 75 q 486 -19 608 -19 z "},"Ú":{"ha":985,"x_min":92,"x_max":886,"o":"m 486 -19 q 276 28 365 -19 q 140 160 188 75 q 92 363 92 246 l 92 972 l 282 972 l 282 363 q 308 253 282 300 q 380 182 333 207 q 489 157 426 157 q 598 182 551 157 q 670 253 644 207 q 696 363 696 300 l 696 972 l 886 972 l 886 363 q 837 160 886 246 q 698 28 788 75 q 486 -19 608 -19 m 425 1017 l 583 1208 l 789 1208 l 610 1017 l 425 1017 z "},"Û":{"ha":978,"x_min":92,"x_max":886,"o":"m 486 -19 q 276 28 365 -19 q 140 160 188 75 q 92 363 92 246 l 92 972 l 282 972 l 282 363 q 308 253 282 300 q 380 182 333 207 q 489 157 426 157 q 598 182 551 157 q 670 253 644 207 q 696 363 696 300 l 696 972 l 886 972 l 886 363 q 837 160 886 246 q 698 28 788 75 q 486 -19 608 -19 m 585 1057 l 485 1151 l 383 1057 l 217 1057 l 389 1250 l 579 1250 l 751 1057 l 585 1057 z "},"Ü":{"ha":978,"x_min":92,"x_max":886,"o":"m 486 -19 q 276 28 365 -19 q 140 160 188 75 q 92 363 92 246 l 92 972 l 282 972 l 282 363 q 308 253 282 300 q 380 182 333 207 q 489 157 426 157 q 598 182 551 157 q 670 253 644 207 q 696 363 696 300 l 696 972 l 886 972 l 886 363 q 837 160 886 246 q 698 28 788 75 q 486 -19 608 -19 m 668 1085 q 602 1114 631 1085 q 574 1181 574 1143 q 602 1248 574 1219 q 668 1276 631 1276 q 735 1248 707 1276 q 764 1181 764 1219 q 735 1114 764 1143 q 668 1085 707 1085 m 310 1085 q 242 1113 271 1085 q 214 1181 214 1142 q 242 1249 214 1221 q 310 1276 271 1276 q 376 1249 349 1276 q 404 1181 404 1221 q 376 1113 404 1142 q 310 1085 349 1085 z "},"Ù":{"ha":978,"x_min":92,"x_max":886,"o":"m 486 -19 q 276 28 365 -19 q 140 160 188 75 q 92 363 92 246 l 92 972 l 282 972 l 282 363 q 308 253 282 300 q 380 182 333 207 q 489 157 426 157 q 598 182 551 157 q 670 253 644 207 q 696 363 696 300 l 696 972 l 886 972 l 886 363 q 837 160 886 246 q 698 28 788 75 q 486 -19 608 -19 m 456 1042 l 274 1235 l 479 1235 l 640 1042 l 456 1042 z "},"V":{"ha":1003,"x_min":11,"x_max":992,"o":"m 399 0 l 11 972 l 215 972 l 501 218 l 788 972 l 992 972 l 606 0 l 399 0 z "},"W":{"ha":1368,"x_min":11,"x_max":1357,"o":"m 299 0 l 11 972 l 204 972 l 400 282 l 589 972 l 778 972 l 968 290 l 1164 972 l 1357 972 l 1067 0 l 867 0 l 683 685 l 497 0 l 299 0 z "},"X":{"ha":943,"x_min":14,"x_max":929,"o":"m 14 0 l 367 497 l 21 972 l 247 972 l 472 650 l 696 972 l 922 972 l 578 499 l 929 0 l 700 0 l 472 343 l 243 0 l 14 0 z "},"Y":{"ha":899,"x_min":10,"x_max":889,"o":"m 354 0 l 354 411 l 10 972 l 226 972 l 450 597 l 672 972 l 889 972 l 544 411 l 544 0 l 354 0 z "},"Ý":{"ha":899,"x_min":10,"x_max":889,"o":"m 354 0 l 354 411 l 10 972 l 226 972 l 450 597 l 672 972 l 889 972 l 544 411 l 544 0 l 354 0 m 332 1017 l 490 1208 l 696 1208 l 517 1017 l 332 1017 z "},"Z":{"ha":878,"x_min":53,"x_max":825,"o":"m 53 0 l 53 178 l 579 794 l 57 794 l 57 972 l 825 972 l 825 794 l 299 178 l 821 178 l 821 0 l 53 0 z "},"a":{"ha":740,"x_min":42,"x_max":675,"o":"m 499 0 l 496 81 q 485 63 490 71 q 304 -17 431 -17 q 110 39 179 -17 q 42 196 42 94 q 116 363 42 307 q 325 419 190 419 l 489 419 q 481 458 485 440 q 438 527 467 503 q 361 551 410 551 q 281 532 317 551 q 219 472 244 513 l 58 528 q 115 615 78 572 q 213 684 153 657 q 361 711 274 711 q 537 671 467 711 q 641 558 607 631 q 674 385 675 485 l 669 0 l 499 0 m 493 283 l 389 283 q 264 262 299 283 q 229 201 229 240 q 257 153 229 171 q 335 136 285 136 q 416 158 381 136 q 472 213 451 179 q 493 283 493 247 z "},"á":{"ha":733,"x_min":42,"x_max":675,"o":"m 499 0 l 496 81 q 485 63 490 71 q 304 -17 431 -17 q 110 39 179 -17 q 42 196 42 94 q 116 363 42 307 q 325 419 190 419 l 489 419 q 481 458 485 440 q 438 527 467 503 q 361 551 410 551 q 281 532 317 551 q 219 472 244 513 l 58 528 q 115 615 78 572 q 213 684 153 657 q 361 711 274 711 q 537 671 467 711 q 641 558 607 631 q 674 385 675 485 l 669 0 l 499 0 m 493 283 l 389 283 q 264 262 299 283 q 229 201 229 240 q 257 153 229 171 q 335 136 285 136 q 416 158 381 136 q 472 213 451 179 q 493 283 493 247 m 233 781 l 392 972 l 597 972 l 418 781 l 233 781 z "},"â":{"ha":733,"x_min":42,"x_max":675,"o":"m 499 0 l 496 81 q 485 63 490 71 q 304 -17 431 -17 q 110 39 179 -17 q 42 196 42 94 q 116 363 42 307 q 325 419 190 419 l 489 419 q 481 458 485 440 q 438 527 467 503 q 361 551 410 551 q 281 532 317 551 q 219 472 244 513 l 58 528 q 115 615 78 572 q 213 684 153 657 q 361 711 274 711 q 537 671 467 711 q 641 558 607 631 q 674 385 675 485 l 669 0 l 499 0 m 493 283 l 389 283 q 264 262 299 283 q 229 201 229 240 q 257 153 229 171 q 335 136 285 136 q 416 158 381 136 q 472 213 451 179 q 493 283 493 247 m 446 796 l 346 890 l 244 796 l 78 796 l 250 989 l 440 989 l 613 796 l 446 796 z "},"ä":{"ha":733,"x_min":42,"x_max":675,"o":"m 499 0 l 496 81 q 485 63 490 71 q 304 -17 431 -17 q 110 39 179 -17 q 42 196 42 94 q 116 363 42 307 q 325 419 190 419 l 489 419 q 481 458 485 440 q 438 527 467 503 q 361 551 410 551 q 281 532 317 551 q 219 472 244 513 l 58 528 q 115 615 78 572 q 213 684 153 657 q 361 711 274 711 q 537 671 467 711 q 641 558 607 631 q 674 385 675 485 l 669 0 l 499 0 m 493 283 l 389 283 q 264 262 299 283 q 229 201 229 240 q 257 153 229 171 q 335 136 285 136 q 416 158 381 136 q 472 213 451 179 q 493 283 493 247 m 529 824 q 463 853 492 824 q 435 919 435 882 q 463 987 435 958 q 529 1015 492 1015 q 597 987 568 1015 q 625 919 625 958 q 597 853 625 882 q 529 824 568 824 m 171 824 q 103 852 132 824 q 75 919 75 881 q 103 988 75 960 q 171 1015 132 1015 q 238 988 210 1015 q 265 919 265 960 q 238 852 265 881 q 171 824 210 824 z "},"à":{"ha":733,"x_min":42,"x_max":675,"o":"m 499 0 l 496 81 q 485 63 490 71 q 304 -17 431 -17 q 110 39 179 -17 q 42 196 42 94 q 116 363 42 307 q 325 419 190 419 l 489 419 q 481 458 485 440 q 438 527 467 503 q 361 551 410 551 q 281 532 317 551 q 219 472 244 513 l 58 528 q 115 615 78 572 q 213 684 153 657 q 361 711 274 711 q 537 671 467 711 q 641 558 607 631 q 674 385 675 485 l 669 0 l 499 0 m 493 283 l 389 283 q 264 262 299 283 q 229 201 229 240 q 257 153 229 171 q 335 136 285 136 q 416 158 381 136 q 472 213 451 179 q 493 283 493 247 m 317 781 l 135 974 l 340 974 l 501 781 l 317 781 z "},"å":{"ha":733,"x_min":42,"x_max":675,"o":"m 499 0 l 496 81 q 485 63 490 71 q 304 -17 431 -17 q 110 39 179 -17 q 42 196 42 94 q 116 363 42 307 q 325 419 190 419 l 489 419 q 481 458 485 440 q 438 527 467 503 q 361 551 410 551 q 281 532 317 551 q 219 472 244 513 l 58 528 q 115 615 78 572 q 213 684 153 657 q 361 711 274 711 q 537 671 467 711 q 641 558 607 631 q 674 385 675 485 l 669 0 l 499 0 m 493 283 l 389 283 q 264 262 299 283 q 229 201 229 240 q 257 153 229 171 q 335 136 285 136 q 416 158 381 136 q 472 213 451 179 q 493 283 493 247 m 350 747 q 268 768 306 747 q 208 824 231 789 q 186 901 186 858 q 208 981 186 946 q 268 1036 231 1015 q 350 1057 306 1057 q 431 1036 394 1057 q 490 981 468 1015 q 513 901 513 946 q 490 824 513 858 q 431 768 468 789 q 350 747 394 747 m 350 853 q 397 901 397 853 q 350 951 397 951 q 301 901 301 951 q 350 853 301 853 z "},"ã":{"ha":733,"x_min":42,"x_max":675,"o":"m 499 0 l 496 81 q 485 63 490 71 q 304 -17 431 -17 q 110 39 179 -17 q 42 196 42 94 q 116 363 42 307 q 325 419 190 419 l 489 419 q 481 458 485 440 q 438 527 467 503 q 361 551 410 551 q 281 532 317 551 q 219 472 244 513 l 58 528 q 115 615 78 572 q 213 684 153 657 q 361 711 274 711 q 537 671 467 711 q 641 558 607 631 q 674 385 675 485 l 669 0 l 499 0 m 493 283 l 389 283 q 264 262 299 283 q 229 201 229 240 q 257 153 229 171 q 335 136 285 136 q 416 158 381 136 q 472 213 451 179 q 493 283 493 247 m 463 763 q 390 778 417 763 q 347 813 363 793 q 318 847 332 832 q 283 863 304 863 q 255 853 267 863 q 235 810 243 843 l 111 810 q 138 905 118 867 q 194 963 158 943 q 278 982 229 982 q 353 967 326 982 q 397 932 381 951 q 428 897 414 913 q 463 882 442 882 q 492 897 483 882 q 504 936 501 913 l 628 936 q 578 810 618 858 q 463 763 539 763 z "},"æ":{"ha":1215,"x_min":42,"x_max":1188,"o":"m 299 -17 q 110 39 178 -17 q 42 196 42 94 q 110 356 42 301 q 299 410 178 410 l 482 410 q 472 465 478 440 q 431 536 461 511 q 342 561 401 561 q 265 542 296 561 q 208 485 233 524 l 46 540 q 167 667 93 622 q 344 711 242 711 q 560 625 485 711 q 576 601 568 614 q 658 665 611 639 q 846 711 740 711 q 1026 664 950 711 q 1145 526 1103 617 q 1188 306 1188 436 l 671 306 q 690 226 675 261 q 751 153 711 179 q 847 128 792 128 q 950 157 907 128 q 1011 229 993 186 l 1171 172 q 1094 66 1144 108 q 981 3 1044 24 q 851 -17 918 -17 q 661 29 744 -17 q 569 101 608 58 q 543 71 558 86 q 299 -17 456 -17 m 675 428 l 1000 428 q 979 496 994 467 q 922 557 957 536 q 842 578 886 578 q 760 557 799 578 q 697 496 721 536 q 675 428 681 467 m 485 293 l 361 293 q 258 269 292 293 q 225 199 225 244 q 253 140 225 161 q 332 119 282 119 q 444 168 403 119 q 485 293 483 215 z "},"b":{"ha":828,"x_min":79,"x_max":786,"o":"m 79 0 l 79 972 l 263 972 l 263 601 q 325 667 289 640 q 472 711 385 711 q 638 667 568 711 q 747 541 708 622 q 786 347 786 460 q 747 154 786 236 q 638 28 708 72 q 472 -17 568 -17 q 325 28 385 -17 q 260 97 286 56 l 253 0 l 79 0 m 425 151 q 513 176 475 151 q 574 246 551 201 q 596 347 596 290 q 574 449 596 404 q 515 517 553 493 q 426 542 476 542 q 342 517 379 542 q 283 448 304 492 q 263 347 263 404 q 283 246 263 290 q 341 176 304 201 q 425 151 378 151 z "},"c":{"ha":758,"x_min":42,"x_max":731,"o":"m 414 -17 q 221 30 306 -17 q 89 159 136 76 q 42 347 42 242 q 89 536 42 454 q 219 665 136 618 q 411 711 303 711 q 601 660 515 711 q 726 511 688 608 l 554 450 q 494 515 535 490 q 403 539 453 539 q 313 515 351 539 q 251 447 274 490 q 229 347 229 404 q 251 248 229 290 q 314 181 274 206 q 406 156 354 156 q 497 182 456 156 q 557 251 538 208 l 731 190 q 605 38 690 92 q 414 -17 519 -17 z "},"ç":{"ha":758,"x_min":42,"x_max":731,"o":"m 354 -293 q 290 -283 324 -293 q 221 -253 257 -274 l 249 -165 q 290 -183 269 -176 q 326 -190 310 -190 q 367 -182 350 -190 q 383 -153 383 -174 q 360 -111 383 -125 q 293 -94 338 -97 l 328 -8 q 221 31 271 3 q 89 159 136 76 q 42 347 42 242 q 89 536 42 454 q 219 665 136 618 q 411 711 303 711 q 601 660 515 711 q 726 511 688 608 l 554 450 q 494 515 535 490 q 403 539 453 539 q 313 515 351 539 q 251 447 274 490 q 229 347 229 404 q 251 248 229 290 q 314 181 274 206 q 406 156 354 156 q 497 182 456 156 q 557 251 538 208 l 731 190 q 606 38 690 92 q 433 -17 528 -11 l 422 -42 q 495 -90 471 -58 q 519 -158 519 -121 q 478 -256 519 -218 q 354 -293 436 -293 z "},"d":{"ha":826,"x_min":42,"x_max":747,"o":"m 574 0 l 567 96 q 504 28 540 54 q 356 -17 443 -17 q 190 28 260 -17 q 81 154 119 72 q 42 347 42 236 q 81 541 42 460 q 190 667 119 622 q 356 711 260 711 q 504 667 443 711 q 564 603 539 640 l 564 972 l 747 972 l 747 0 l 574 0 m 403 151 q 487 176 450 151 q 544 246 524 201 q 564 318 560 279 l 564 376 q 544 449 560 415 q 487 517 524 493 q 401 542 450 542 q 314 517 351 542 q 254 449 276 493 q 232 347 232 404 q 254 246 232 290 q 315 176 276 201 q 403 151 353 151 z "},"ð":{"ha":794,"x_min":42,"x_max":739,"o":"m 390 -17 q 210 26 289 -17 q 86 145 131 69 q 42 319 42 221 q 82 493 42 418 q 197 611 122 568 q 369 654 271 654 q 455 640 413 654 q 535 604 497 626 q 540 600 538 601 q 488 708 522 661 q 454 744 472 728 l 351 675 l 301 749 l 376 800 q 374 801 375 800 q 192 865 301 840 l 225 1018 q 439 954 350 999 q 524 900 486 929 l 626 971 l 676 897 l 590 839 q 679 697 647 775 q 726 525 713 617 q 738 336 739 433 q 693 153 738 233 q 570 28 649 74 q 390 -17 492 -17 m 390 149 q 474 171 439 149 q 528 231 508 193 q 549 319 549 269 q 528 406 549 368 q 472 466 508 444 q 388 488 436 488 q 306 466 342 488 q 251 406 271 444 q 231 319 231 368 q 251 231 231 269 q 307 171 271 193 q 390 149 343 149 z "},"e":{"ha":769,"x_min":42,"x_max":742,"o":"m 393 -17 q 211 30 290 -17 q 87 158 132 76 q 42 347 42 240 q 88 536 42 454 q 216 665 135 618 q 403 711 297 711 q 572 663 494 711 q 695 523 649 615 q 742 299 742 431 l 233 299 q 258 226 236 257 q 324 167 283 188 q 413 147 365 147 q 506 172 469 147 q 561 235 542 196 l 725 171 q 649 70 696 113 q 539 6 603 28 q 393 -17 475 -17 m 243 435 l 543 435 q 521 499 540 474 q 463 542 497 528 q 397 556 429 556 q 329 542 365 556 q 268 499 293 528 q 243 435 246 474 z "},"é":{"ha":774,"x_min":42,"x_max":742,"o":"m 393 -17 q 211 30 290 -17 q 87 158 132 76 q 42 347 42 240 q 88 536 42 454 q 216 665 135 618 q 403 711 297 711 q 572 663 494 711 q 695 523 649 615 q 742 299 742 431 l 233 299 q 258 226 236 257 q 324 167 283 188 q 413 147 365 147 q 506 172 469 147 q 561 235 542 196 l 725 171 q 649 70 696 113 q 539 6 603 28 q 393 -17 475 -17 m 243 435 l 543 435 q 521 499 540 474 q 463 542 497 528 q 397 556 429 556 q 329 542 365 556 q 268 499 293 528 q 243 435 246 474 m 288 781 l 446 972 l 651 972 l 472 781 l 288 781 z "},"ê":{"ha":774,"x_min":42,"x_max":742,"o":"m 393 -17 q 211 30 290 -17 q 87 158 132 76 q 42 347 42 240 q 88 536 42 454 q 216 665 135 618 q 403 711 297 711 q 572 663 494 711 q 695 523 649 615 q 742 299 742 431 l 233 299 q 258 226 236 257 q 324 167 283 188 q 413 147 365 147 q 506 172 469 147 q 561 235 542 196 l 725 171 q 649 70 696 113 q 539 6 603 28 q 393 -17 475 -17 m 243 435 l 543 435 q 521 499 540 474 q 463 542 497 528 q 397 556 429 556 q 329 542 365 556 q 268 499 293 528 q 243 435 246 474 m 500 796 l 400 890 l 299 796 l 132 796 l 304 989 l 494 989 l 667 796 l 500 796 z "},"ë":{"ha":774,"x_min":42,"x_max":742,"o":"m 393 -17 q 211 30 290 -17 q 87 158 132 76 q 42 347 42 240 q 88 536 42 454 q 216 665 135 618 q 403 711 297 711 q 572 663 494 711 q 695 523 649 615 q 742 299 742 431 l 233 299 q 258 226 236 257 q 324 167 283 188 q 413 147 365 147 q 506 172 469 147 q 561 235 542 196 l 725 171 q 649 70 696 113 q 539 6 603 28 q 393 -17 475 -17 m 243 435 l 543 435 q 521 499 540 474 q 463 542 497 528 q 397 556 429 556 q 329 542 365 556 q 268 499 293 528 q 243 435 246 474 m 583 824 q 517 853 546 824 q 489 919 489 882 q 517 987 489 958 q 583 1015 546 1015 q 651 987 622 1015 q 679 919 679 958 q 651 853 679 882 q 583 824 622 824 m 225 824 q 158 852 186 824 q 129 919 129 881 q 158 988 129 960 q 225 1015 186 1015 q 292 988 264 1015 q 319 919 319 960 q 292 852 319 881 q 225 824 264 824 z "},"è":{"ha":774,"x_min":42,"x_max":742,"o":"m 393 -17 q 211 30 290 -17 q 87 158 132 76 q 42 347 42 240 q 88 536 42 454 q 216 665 135 618 q 403 711 297 711 q 572 663 494 711 q 695 523 649 615 q 742 299 742 431 l 233 299 q 258 226 236 257 q 324 167 283 188 q 413 147 365 147 q 506 172 469 147 q 561 235 542 196 l 725 171 q 649 70 696 113 q 539 6 603 28 q 393 -17 475 -17 m 243 435 l 543 435 q 521 499 540 474 q 463 542 497 528 q 397 556 429 556 q 329 542 365 556 q 268 499 293 528 q 243 435 246 474 m 371 781 l 189 974 l 394 974 l 556 781 l 371 781 z "},"f":{"ha":546,"x_min":33,"x_max":547,"o":"m 149 0 l 149 547 l 33 547 l 33 694 l 149 694 l 149 764 q 206 937 149 875 q 379 999 263 999 q 465 985 419 999 q 547 951 510 971 l 479 819 q 439 836 457 831 q 406 842 421 842 q 350 816 368 842 q 332 733 332 790 l 332 694 l 503 694 l 503 547 l 332 547 l 332 0 l 149 0 z "},"g":{"ha":835,"x_min":42,"x_max":756,"o":"m 392 -296 q 251 -285 313 -296 q 149 -256 190 -274 q 81 -219 107 -237 l 153 -72 q 204 -98 172 -83 q 281 -123 236 -112 q 383 -133 325 -133 q 481 -112 439 -133 q 548 -45 524 -90 q 572 69 572 0 l 572 135 q 500 61 543 89 q 356 19 439 19 q 190 61 260 19 q 81 178 119 103 q 42 356 42 253 q 81 544 42 464 q 190 667 119 624 q 356 711 260 711 q 500 668 439 711 q 572 588 543 636 l 572 694 l 756 694 l 756 75 q 711 -126 756 -42 q 585 -253 667 -210 q 392 -296 504 -296 m 408 174 q 491 198 456 174 q 546 265 526 222 q 565 361 565 307 q 545 458 565 417 q 490 524 525 500 q 407 547 454 547 q 321 524 358 547 q 263 458 283 500 q 240 361 242 417 q 263 265 242 307 q 322 198 283 222 q 408 174 360 174 z "},"h":{"ha":792,"x_min":81,"x_max":725,"o":"m 81 0 l 81 972 l 264 972 l 264 606 q 328 671 290 644 q 465 711 386 711 q 606 678 549 711 q 694 574 664 644 q 725 393 725 504 l 725 0 l 542 0 l 542 356 q 525 465 542 426 q 479 522 508 504 q 411 539 450 539 q 302 496 340 540 q 264 364 264 451 l 264 0 l 81 0 z "},"i":{"ha":364,"x_min":76,"x_max":288,"o":"m 90 0 l 90 694 l 274 694 l 274 0 l 90 0 m 182 807 q 108 838 140 807 q 76 913 76 869 q 108 987 76 956 q 182 1018 140 1018 q 256 987 225 1018 q 288 913 288 956 q 256 838 288 869 q 182 807 225 807 z "},"ı":{"ha":364,"x_min":90,"x_max":274,"o":"m 90 0 l 90 694 l 274 694 l 274 0 l 90 0 z "},"í":{"ha":364,"x_min":65,"x_max":428,"o":"m 90 0 l 90 694 l 274 694 l 274 0 l 90 0 m 65 781 l 224 972 l 429 972 l 250 781 l 65 781 z "},"î":{"ha":364,"x_min":-90,"x_max":444,"o":"m 90 0 l 90 694 l 274 694 l 274 0 l 90 0 m 278 796 l 178 890 l 76 796 l -90 796 l 82 989 l 272 989 l 444 796 l 278 796 z "},"ï":{"ha":364,"x_min":-31,"x_max":394,"o":"m 299 824 q 233 853 261 824 q 204 919 204 882 q 233 987 204 958 q 299 1015 261 1015 q 366 987 338 1015 q 394 919 394 958 q 366 853 394 882 q 299 824 338 824 m 65 824 q -2 852 26 824 q -31 919 -31 881 q -2 988 -31 960 q 65 1015 26 1015 q 133 988 104 1015 q 161 919 161 960 q 133 852 161 881 q 65 824 104 824 m 90 0 l 90 694 l 274 694 l 274 0 l 90 0 z "},"ì":{"ha":364,"x_min":-33,"x_max":332,"o":"m 90 0 l 90 694 l 274 694 l 274 0 l 90 0 m 149 781 l -33 974 l 172 974 l 333 781 l 149 781 z "},"j":{"ha":404,"x_min":-86,"x_max":328,"o":"m 219 803 q 143 835 175 803 q 111 911 111 867 q 143 988 111 956 q 219 1019 175 1019 q 296 988 264 1019 q 328 911 328 956 q 296 835 328 867 q 219 803 264 803 m 65 -299 q -86 -256 -14 -299 l -12 -104 q 28 -122 10 -115 q 61 -128 47 -128 q 128 -40 128 -128 l 128 694 l 311 694 l 311 -53 q 247 -235 311 -171 q 65 -299 183 -299 z "},"k":{"ha":747,"x_min":79,"x_max":739,"o":"m 79 0 l 79 972 l 263 972 l 263 433 l 500 694 l 718 694 l 456 401 l 739 0 l 524 0 l 339 271 l 263 186 l 263 0 l 79 0 z "},"l":{"ha":342,"x_min":79,"x_max":263,"o":"m 79 0 l 79 972 l 263 972 l 263 0 l 79 0 z "},"m":{"ha":1211,"x_min":79,"x_max":1144,"o":"m 79 0 l 79 694 l 251 694 l 260 604 q 342 684 292 657 q 453 711 392 711 q 595 675 538 711 q 679 564 653 639 q 765 673 710 635 q 894 711 821 711 q 1081 634 1017 711 q 1144 397 1144 557 l 1144 0 l 961 0 l 961 356 q 946 465 961 426 q 904 522 931 504 q 842 539 878 539 q 739 496 775 540 q 703 364 703 451 l 703 0 l 519 0 l 519 356 q 505 465 519 426 q 463 522 490 504 q 400 539 436 539 q 298 496 333 540 q 263 364 263 451 l 263 0 l 79 0 z "},"n":{"ha":789,"x_min":79,"x_max":724,"o":"m 79 0 l 79 694 l 251 694 l 260 601 q 326 671 288 643 q 464 711 385 711 q 604 678 546 711 q 693 574 663 644 q 722 393 724 504 l 722 0 l 539 0 l 539 356 q 523 465 539 426 q 478 522 507 504 q 410 539 449 539 q 301 496 339 540 q 263 364 263 451 l 263 0 l 79 0 z "},"ñ":{"ha":789,"x_min":79,"x_max":724,"o":"m 79 0 l 79 694 l 251 694 l 260 601 q 326 671 288 643 q 464 711 385 711 q 604 678 546 711 q 693 574 663 644 q 722 393 724 504 l 722 0 l 539 0 l 539 356 q 523 465 539 426 q 478 522 507 504 q 410 539 449 539 q 301 496 339 540 q 263 364 263 451 l 263 0 l 79 0 m 503 763 q 430 778 457 763 q 388 813 403 793 q 358 847 372 832 q 324 863 344 863 q 295 853 307 863 q 275 810 283 843 l 151 810 q 178 905 158 867 q 234 963 199 943 q 318 982 269 982 q 394 967 367 982 q 438 932 421 951 q 468 897 454 913 q 503 882 482 882 q 533 897 524 882 q 544 936 542 913 l 668 936 q 619 810 658 858 q 503 763 579 763 z "},"o":{"ha":807,"x_min":42,"x_max":765,"o":"m 406 -17 q 217 30 300 -17 q 88 158 135 76 q 42 347 42 240 q 88 536 42 454 q 215 665 133 618 q 403 711 297 711 q 592 665 510 711 q 719 536 674 618 q 765 347 765 454 q 719 158 765 240 q 592 30 674 76 q 406 -17 511 -17 m 406 153 q 496 178 457 153 q 556 247 535 203 q 578 347 578 290 q 556 448 578 404 q 494 517 533 492 q 403 542 454 542 q 313 517 353 542 q 251 448 274 492 q 229 347 229 404 q 251 247 229 290 q 314 178 274 203 q 406 153 354 153 z "},"ó":{"ha":807,"x_min":42,"x_max":765,"o":"m 406 -17 q 217 30 300 -17 q 88 158 135 76 q 42 347 42 240 q 88 536 42 454 q 215 665 133 618 q 403 711 297 711 q 592 665 510 711 q 719 536 674 618 q 765 347 765 454 q 719 158 765 240 q 592 30 674 76 q 406 -17 511 -17 m 406 153 q 496 178 457 153 q 556 247 535 203 q 578 347 578 290 q 556 448 578 404 q 494 517 533 492 q 403 542 454 542 q 313 517 353 542 q 251 448 274 492 q 229 347 229 404 q 251 247 229 290 q 314 178 274 203 q 406 153 354 153 m 282 781 l 440 972 l 646 972 l 467 781 l 282 781 z "},"ô":{"ha":807,"x_min":42,"x_max":765,"o":"m 406 -17 q 217 30 300 -17 q 88 158 135 76 q 42 347 42 240 q 88 536 42 454 q 215 665 133 618 q 403 711 297 711 q 592 665 510 711 q 719 536 674 618 q 765 347 765 454 q 719 158 765 240 q 592 30 674 76 q 406 -17 511 -17 m 406 153 q 496 178 457 153 q 556 247 535 203 q 578 347 578 290 q 556 448 578 404 q 494 517 533 492 q 403 542 454 542 q 313 517 353 542 q 251 448 274 492 q 229 347 229 404 q 251 247 229 290 q 314 178 274 203 q 406 153 354 153 m 496 796 l 396 890 l 294 796 l 128 796 l 300 989 l 490 989 l 663 796 l 496 796 z "},"ö":{"ha":807,"x_min":42,"x_max":765,"o":"m 406 -17 q 217 30 300 -17 q 88 158 135 76 q 42 347 42 240 q 88 536 42 454 q 215 665 133 618 q 403 711 297 711 q 592 665 510 711 q 719 536 674 618 q 765 347 765 454 q 719 158 765 240 q 592 30 674 76 q 406 -17 511 -17 m 406 153 q 496 178 457 153 q 556 247 535 203 q 578 347 578 290 q 556 448 578 404 q 494 517 533 492 q 403 542 454 542 q 313 517 353 542 q 251 448 274 492 q 229 347 229 404 q 251 247 229 290 q 314 178 274 203 q 406 153 354 153 m 579 824 q 513 853 542 824 q 485 919 485 882 q 513 987 485 958 q 579 1015 542 1015 q 647 987 618 1015 q 675 919 675 958 q 647 853 675 882 q 579 824 618 824 m 221 824 q 153 852 182 824 q 125 919 125 881 q 153 988 125 960 q 221 1015 182 1015 q 288 988 260 1015 q 315 919 315 960 q 288 852 315 881 q 221 824 260 824 z "},"ò":{"ha":807,"x_min":42,"x_max":765,"o":"m 406 -17 q 217 30 300 -17 q 88 158 135 76 q 42 347 42 240 q 88 536 42 454 q 215 665 133 618 q 403 711 297 711 q 592 665 510 711 q 719 536 674 618 q 765 347 765 454 q 719 158 765 240 q 592 30 674 76 q 406 -17 511 -17 m 406 153 q 496 178 457 153 q 556 247 535 203 q 578 347 578 290 q 556 448 578 404 q 494 517 533 492 q 403 542 454 542 q 313 517 353 542 q 251 448 274 492 q 229 347 229 404 q 251 247 229 290 q 314 178 274 203 q 406 153 354 153 m 365 781 l 183 974 l 389 974 l 550 781 l 365 781 z "},"ø":{"ha":803,"x_min":24,"x_max":779,"o":"m 24 0 l 118 110 q 85 158 99 132 q 38 347 38 240 q 83 536 38 454 q 211 665 129 618 q 399 711 293 711 q 588 665 504 711 q 592 663 589 664 l 619 694 l 779 694 l 683 583 q 715 536 701 561 q 761 347 761 454 q 715 158 761 240 q 588 30 669 76 q 401 -17 507 -17 q 213 31 294 -17 q 210 31 211 31 l 183 0 l 24 0 m 243 256 l 474 525 q 399 542 440 542 q 308 517 347 542 q 247 448 269 492 q 225 347 225 404 q 243 256 225 296 m 401 153 q 490 178 451 153 q 551 247 529 203 q 574 347 574 290 q 557 436 574 396 l 328 168 q 401 153 361 153 z "},"õ":{"ha":807,"x_min":42,"x_max":765,"o":"m 406 -17 q 217 30 300 -17 q 88 158 135 76 q 42 347 42 240 q 88 536 42 454 q 215 665 133 618 q 403 711 297 711 q 592 665 510 711 q 719 536 674 618 q 765 347 765 454 q 719 158 765 240 q 592 30 674 76 q 406 -17 511 -17 m 406 153 q 496 178 457 153 q 556 247 535 203 q 578 347 578 290 q 556 448 578 404 q 494 517 533 492 q 403 542 454 542 q 313 517 353 542 q 251 448 274 492 q 229 347 229 404 q 251 247 229 290 q 314 178 274 203 q 406 153 354 153 m 513 763 q 440 778 467 763 q 397 813 413 793 q 368 847 382 832 q 333 863 354 863 q 305 853 317 863 q 285 810 293 843 l 161 810 q 188 905 168 867 q 244 963 208 943 q 328 982 279 982 q 403 967 376 982 q 447 932 431 951 q 478 897 464 913 q 513 882 492 882 q 542 897 533 882 q 554 936 551 913 l 678 936 q 628 810 668 858 q 513 763 589 763 z "},"œ":{"ha":1386,"x_min":42,"x_max":1354,"o":"m 406 -17 q 217 30 300 -17 q 88 158 135 76 q 42 347 42 240 q 88 536 42 454 q 215 665 133 618 q 403 711 297 711 q 592 665 510 711 q 710 551 665 622 q 829 665 756 622 q 1015 711 910 711 q 1184 663 1107 711 q 1308 523 1261 615 q 1354 299 1354 431 l 846 299 q 871 226 849 257 q 937 167 896 188 q 1025 147 978 147 q 1118 172 1082 147 q 1174 235 1154 196 l 1338 171 q 1262 70 1308 113 q 1151 6 1215 28 q 1006 -17 1088 -17 q 824 31 903 -17 q 710 142 753 71 q 593 31 665 71 q 406 -17 511 -17 m 406 153 q 496 178 457 153 q 556 247 535 203 q 578 347 578 290 q 556 448 578 404 q 494 517 533 492 q 403 542 454 542 q 313 517 353 542 q 251 448 274 492 q 229 347 229 404 q 251 247 229 290 q 314 178 274 203 q 406 153 354 153 m 856 435 l 1156 435 q 1133 499 1153 474 q 1076 542 1110 528 q 1010 556 1042 556 q 942 542 978 556 q 881 499 906 528 q 856 435 858 474 z "},"p":{"ha":835,"x_min":86,"x_max":793,"o":"m 86 -278 l 86 694 l 258 694 l 267 597 q 332 667 293 639 q 479 711 392 711 q 645 667 575 711 q 754 541 715 622 q 793 347 793 460 q 754 154 793 236 q 645 28 715 72 q 479 -17 575 -17 q 332 28 392 -17 q 269 94 296 54 l 269 -278 l 86 -278 m 432 151 q 520 176 482 151 q 581 246 558 201 q 603 347 603 290 q 581 449 603 404 q 522 517 560 493 q 433 542 483 542 q 349 517 386 542 q 290 448 311 492 q 269 347 269 404 q 290 246 269 290 q 348 176 311 201 q 432 151 385 151 z "},"þ":{"ha":828,"x_min":79,"x_max":786,"o":"m 79 -278 l 79 972 l 263 972 l 263 601 q 325 667 289 640 q 472 711 385 711 q 638 667 568 711 q 747 541 708 622 q 786 347 786 460 q 747 154 786 236 q 638 28 708 72 q 472 -17 568 -17 q 325 28 385 -17 q 263 94 289 54 l 263 -278 l 79 -278 m 425 151 q 513 176 475 151 q 574 246 551 201 q 596 347 596 290 q 574 449 596 404 q 515 517 553 493 q 426 542 476 542 q 342 517 379 542 q 283 448 304 492 q 263 347 263 404 q 283 246 263 290 q 341 176 304 201 q 425 151 378 151 z "},"q":{"ha":822,"x_min":42,"x_max":749,"o":"m 565 -278 l 565 94 q 504 28 539 54 q 356 -17 443 -17 q 190 28 260 -17 q 81 154 119 72 q 42 347 42 236 q 81 541 42 460 q 190 667 119 622 q 356 711 260 711 q 504 667 443 711 q 568 597 542 639 l 575 694 l 749 694 l 749 -278 l 565 -278 m 403 151 q 487 176 450 151 q 544 246 524 201 q 565 347 565 290 q 544 449 565 404 q 487 517 524 493 q 401 542 450 542 q 314 517 351 542 q 254 449 276 493 q 232 347 232 404 q 254 246 232 290 q 315 176 276 201 q 403 151 353 151 z "},"r":{"ha":526,"x_min":79,"x_max":508,"o":"m 79 0 l 79 694 l 263 694 l 263 568 q 365 661 304 629 q 508 697 433 697 l 508 519 q 388 504 444 519 q 297 454 332 489 q 263 365 263 419 l 263 0 l 79 0 z "},"s":{"ha":647,"x_min":42,"x_max":619,"o":"m 339 -17 q 214 3 272 -17 q 111 62 156 24 q 42 156 67 100 l 199 228 q 256 170 219 194 q 339 146 292 146 q 410 159 385 146 q 435 197 435 172 q 415 234 435 222 q 360 254 394 246 l 296 271 q 138 355 196 297 q 81 488 81 413 q 149 653 81 594 q 344 711 218 711 q 466 692 410 711 q 563 638 522 672 q 618 557 603 603 l 467 488 q 419 533 457 515 q 344 550 382 550 q 287 534 307 550 q 267 490 267 518 q 286 460 267 472 q 342 440 306 449 l 432 418 q 541 365 500 401 q 601 283 582 328 q 619 194 619 238 q 583 84 619 132 q 483 10 546 36 q 339 -17 419 -17 z "},"ß":{"ha":815,"x_min":79,"x_max":767,"o":"m 79 0 l 79 685 q 121 852 79 785 q 238 954 163 919 q 411 989 313 989 q 580 956 507 989 q 694 861 653 924 q 735 706 735 799 q 714 600 735 650 q 654 511 693 550 q 644 503 650 507 q 726 431 697 475 q 767 269 767 369 q 728 124 767 183 q 618 32 689 64 q 453 0 547 0 l 378 0 l 378 168 l 435 168 q 542 201 503 168 q 581 286 581 235 q 542 374 581 342 q 436 407 503 407 l 381 407 l 381 579 l 393 579 q 483 594 449 579 q 534 639 518 610 q 550 708 550 668 q 510 798 550 765 q 410 831 469 831 q 305 792 344 831 q 265 685 265 753 l 265 0 l 79 0 z "},"t":{"ha":558,"x_min":19,"x_max":521,"o":"m 365 -17 q 191 40 250 -17 q 132 203 132 97 l 132 539 l 19 539 l 19 694 l 132 694 l 132 911 l 315 911 l 315 694 l 489 694 l 489 539 l 315 539 l 315 243 q 335 176 315 199 q 392 153 354 153 q 422 159 406 153 q 457 178 439 165 l 521 40 q 447 -1 488 15 q 365 -17 406 -17 z "},"u":{"ha":789,"x_min":67,"x_max":710,"o":"m 538 0 l 529 93 q 464 25 501 51 q 326 -17 406 -17 q 185 17 243 -17 q 97 120 126 50 q 67 301 67 190 l 67 694 l 250 694 l 250 339 q 266 230 250 269 q 312 173 282 190 q 379 156 342 156 q 489 199 451 154 q 526 331 526 244 l 526 694 l 710 694 l 710 0 l 538 0 z "},"ú":{"ha":789,"x_min":67,"x_max":710,"o":"m 538 0 l 529 93 q 464 25 501 51 q 326 -17 406 -17 q 185 17 243 -17 q 97 120 126 50 q 67 301 67 190 l 67 694 l 250 694 l 250 339 q 266 230 250 269 q 312 173 282 190 q 379 156 342 156 q 489 199 451 154 q 526 331 526 244 l 526 694 l 710 694 l 710 0 l 538 0 m 275 781 l 433 972 l 639 972 l 460 781 l 275 781 z "},"û":{"ha":789,"x_min":67,"x_max":710,"o":"m 538 0 l 529 93 q 464 25 501 51 q 326 -17 406 -17 q 185 17 243 -17 q 97 120 126 50 q 67 301 67 190 l 67 694 l 250 694 l 250 339 q 266 230 250 269 q 312 173 282 190 q 379 156 342 156 q 489 199 451 154 q 526 331 526 244 l 526 694 l 710 694 l 710 0 l 538 0 m 488 796 l 388 890 l 286 796 l 119 796 l 292 989 l 482 989 l 654 796 l 488 796 z "},"ü":{"ha":789,"x_min":67,"x_max":710,"o":"m 538 0 l 529 93 q 464 25 501 51 q 326 -17 406 -17 q 185 17 243 -17 q 97 120 126 50 q 67 301 67 190 l 67 694 l 250 694 l 250 339 q 266 230 250 269 q 312 173 282 190 q 379 156 342 156 q 489 199 451 154 q 526 331 526 244 l 526 694 l 710 694 l 710 0 l 538 0 m 571 824 q 505 853 533 824 q 476 919 476 882 q 505 987 476 958 q 571 1015 533 1015 q 638 987 610 1015 q 667 919 667 958 q 638 853 667 882 q 571 824 610 824 m 213 824 q 145 852 174 824 q 117 919 117 881 q 145 988 117 960 q 213 1015 174 1015 q 279 988 251 1015 q 307 919 307 960 q 279 852 307 881 q 213 824 251 824 z "},"ù":{"ha":789,"x_min":67,"x_max":710,"o":"m 538 0 l 529 93 q 464 25 501 51 q 326 -17 406 -17 q 185 17 243 -17 q 97 120 126 50 q 67 301 67 190 l 67 694 l 250 694 l 250 339 q 266 230 250 269 q 312 173 282 190 q 379 156 342 156 q 489 199 451 154 q 526 331 526 244 l 526 694 l 710 694 l 710 0 l 538 0 m 358 781 l 176 974 l 382 974 l 543 781 l 358 781 z "},"v":{"ha":772,"x_min":10,"x_max":763,"o":"m 294 0 l 10 694 l 199 694 l 386 201 l 574 694 l 763 694 l 478 0 l 294 0 z "},"w":{"ha":1160,"x_min":14,"x_max":1146,"o":"m 729 0 l 581 475 l 431 0 l 250 0 l 14 694 l 200 694 l 344 239 l 490 694 l 671 694 l 813 250 l 960 694 l 1146 694 l 910 0 l 729 0 z "},"x":{"ha":744,"x_min":14,"x_max":731,"o":"m 14 0 l 272 361 l 32 694 l 249 694 l 374 508 l 497 694 l 714 694 l 475 358 l 731 0 l 513 0 l 374 211 l 233 0 l 14 0 z "},"y":{"ha":800,"x_min":6,"x_max":794,"o":"m 218 -294 q 135 -280 181 -294 q 56 -246 90 -265 l 124 -97 q 167 -117 147 -110 q 203 -125 188 -125 q 254 -109 232 -125 q 290 -62 276 -93 l 319 8 l 6 694 l 207 694 l 404 214 l 593 694 l 794 694 l 479 -60 q 418 -183 450 -129 q 340 -265 386 -236 q 218 -294 293 -294 z "},"ý":{"ha":800,"x_min":6,"x_max":794,"o":"m 218 -294 q 135 -280 181 -294 q 56 -246 90 -265 l 124 -97 q 167 -117 147 -110 q 203 -125 188 -125 q 254 -109 232 -125 q 290 -62 276 -93 l 319 8 l 6 694 l 207 694 l 404 214 l 593 694 l 794 694 l 479 -60 q 418 -183 450 -129 q 340 -265 386 -236 q 218 -294 293 -294 m 282 781 l 440 972 l 646 972 l 467 781 l 282 781 z "},"ÿ":{"ha":800,"x_min":6,"x_max":794,"o":"m 218 -294 q 135 -280 181 -294 q 56 -246 90 -265 l 124 -97 q 167 -117 147 -110 q 203 -125 188 -125 q 254 -109 232 -125 q 290 -62 276 -93 l 319 8 l 6 694 l 207 694 l 404 214 l 593 694 l 794 694 l 479 -60 q 418 -183 450 -129 q 340 -265 386 -236 q 218 -294 293 -294 m 579 824 q 513 853 542 824 q 485 919 485 882 q 513 987 485 958 q 579 1015 542 1015 q 647 987 618 1015 q 675 919 675 958 q 647 853 675 882 q 579 824 618 824 m 221 824 q 153 852 182 824 q 125 919 125 881 q 153 988 125 960 q 221 1015 182 1015 q 288 988 260 1015 q 315 919 315 960 q 288 852 315 881 q 221 824 260 824 z "},"z":{"ha":663,"x_min":44,"x_max":618,"o":"m 44 0 l 44 133 l 388 543 l 44 543 l 44 694 l 617 694 l 617 563 l 274 150 l 618 150 l 618 0 l 44 0 z "},"ª":{"ha":468,"x_min":29,"x_max":422,"o":"m 297 556 l 296 600 q 293 596 294 597 q 183 546 253 546 q 69 579 110 546 q 29 674 29 613 q 70 769 29 738 q 183 801 111 801 l 290 801 q 288 822 289 813 q 266 861 282 847 q 214 875 250 875 q 177 865 192 875 q 149 836 163 856 l 31 875 q 106 953 60 925 q 218 982 151 982 q 369 929 315 982 q 422 788 422 876 l 422 556 l 297 556 m 294 722 l 232 722 q 163 675 163 722 q 176 651 163 660 q 213 642 189 642 q 268 663 247 642 q 289 721 289 685 l 294 722 z "},"º":{"ha":503,"x_min":29,"x_max":474,"o":"m 253 546 q 137 574 188 546 q 58 651 86 601 q 29 764 29 700 q 58 877 29 828 q 136 954 86 926 q 251 982 186 982 q 412 921 350 982 q 474 764 474 860 q 445 651 474 700 q 367 574 417 601 q 253 546 317 546 m 253 669 q 313 696 289 669 q 338 764 338 722 q 313 833 338 806 q 251 860 289 860 q 190 833 214 860 q 167 764 167 806 q 191 696 167 722 q 253 669 215 669 z "},"⁄":{"ha":308,"x_min":-249,"x_max":557,"o":"m -249 0 l 419 972 l 557 972 l -111 0 l -249 0 z "},"½":{"ha":1207,"x_min":46,"x_max":1164,"o":"m 165 389 l 165 800 q 158 796 161 797 q 46 769 104 764 l 46 894 q 113 916 78 892 q 179 974 149 940 l 181 972 l 296 972 l 296 389 l 165 389 m 140 0 l 808 972 l 946 972 l 278 0 l 140 0 m 743 0 l 743 99 q 760 151 743 121 q 806 211 776 181 q 874 268 836 242 l 944 317 q 993 357 969 333 q 1017 406 1017 381 q 997 451 1017 433 q 939 468 978 468 q 890 449 910 468 q 863 406 869 431 l 721 429 q 758 510 729 474 q 833 571 786 547 q 939 594 879 594 q 1099 542 1040 594 q 1157 407 1157 490 q 1124 306 1157 347 q 1039 228 1092 264 l 968 179 q 929 147 949 165 q 904 121 915 133 l 1164 121 l 1164 0 l 743 0 z "},"¼":{"ha":1164,"x_min":46,"x_max":1135,"o":"m 165 389 l 165 800 q 158 796 161 797 q 46 769 104 764 l 46 894 q 113 916 78 892 q 179 974 149 940 l 181 972 l 296 972 l 296 389 l 165 389 m 140 0 l 808 972 l 946 972 l 278 0 l 140 0 m 640 100 l 640 211 l 894 583 l 896 582 l 896 583 l 1043 583 l 1043 217 l 1135 217 l 1135 100 l 1043 100 l 1043 0 l 913 0 l 913 100 l 640 100 m 913 217 l 913 415 l 778 217 l 913 217 z "},"¾":{"ha":1268,"x_min":38,"x_max":1239,"o":"m 254 379 q 110 417 169 379 q 38 526 51 456 l 168 556 q 192 517 176 538 q 246 497 208 497 q 297 515 278 497 q 317 564 317 533 q 309 597 317 581 q 280 622 301 613 q 217 631 258 631 l 171 631 l 171 742 l 217 742 q 288 759 267 742 q 308 806 308 776 q 291 847 308 831 q 244 864 274 864 q 201 851 222 864 q 171 806 181 839 l 43 835 q 83 916 51 883 q 158 965 114 949 q 249 982 201 982 q 348 961 303 982 q 419 905 393 940 q 446 821 446 869 q 411 731 446 765 q 351 689 386 704 q 421 638 393 668 q 456 546 456 599 q 426 455 456 492 q 351 399 397 418 q 254 379 306 379 m 244 0 l 913 972 l 1050 972 l 382 0 l 244 0 m 744 100 l 744 211 l 999 583 l 1000 582 l 1000 583 l 1147 583 l 1147 217 l 1239 217 l 1239 100 l 1147 100 l 1147 0 l 1017 0 l 1017 100 l 744 100 m 1017 217 l 1017 415 l 882 217 l 1017 217 z "},"¹":{"ha":389,"x_min":46,"x_max":296,"o":"m 165 528 l 165 939 q 158 935 161 936 q 46 908 104 903 l 46 1033 q 113 1055 78 1031 q 179 1113 149 1079 l 181 1111 l 296 1111 l 296 528 l 165 528 z "},"²":{"ha":510,"x_min":24,"x_max":467,"o":"m 46 528 l 46 626 q 63 678 46 649 q 109 739 79 708 q 176 796 139 769 l 247 844 q 296 885 272 861 q 319 933 319 908 q 300 978 319 961 q 242 996 281 996 q 192 977 213 996 q 165 933 172 958 l 24 957 q 60 1038 32 1001 q 135 1099 89 1075 q 242 1122 182 1122 q 401 1070 343 1122 q 460 935 460 1018 q 427 833 460 875 q 342 756 394 792 l 271 707 q 232 675 251 693 q 207 649 218 661 l 467 649 l 467 528 l 46 528 z "},"³":{"ha":493,"x_min":38,"x_max":456,"o":"m 254 518 q 110 556 169 518 q 38 665 51 594 l 168 694 q 192 656 176 676 q 246 636 208 636 q 297 654 278 636 q 317 703 317 672 q 309 735 317 719 q 280 760 301 751 q 217 769 258 769 l 171 769 l 171 881 l 217 881 q 288 898 267 881 q 308 944 308 915 q 291 986 308 969 q 244 1003 274 1003 q 201 990 222 1003 q 171 944 181 978 l 43 974 q 83 1055 51 1022 q 158 1104 114 1088 q 249 1121 201 1121 q 348 1100 303 1121 q 419 1044 393 1079 q 446 960 446 1008 q 411 869 446 904 q 351 828 386 843 q 421 776 393 807 q 456 685 456 738 q 426 594 456 631 q 351 538 397 557 q 254 518 306 518 z "}," ":{"ha":331,"x_min":0,"x_max":0,"o":""}," ":{"ha":331,"x_min":0,"x_max":0,"o":""},"\r":{"ha":833,"x_min":0,"x_max":0,"o":""},".":{"ha":344,"x_min":61,"x_max":283,"o":"m 172 -21 q 94 13 126 -21 q 61 92 61 46 q 94 169 61 136 q 172 203 126 203 q 251 169 218 203 q 283 92 283 136 q 251 13 283 46 q 172 -21 218 -21 z "},",":{"ha":357,"x_min":40,"x_max":315,"o":"m 40 -158 l 125 169 l 315 169 l 179 -158 l 40 -158 z "},":":{"ha":418,"x_min":97,"x_max":321,"o":"m 208 472 q 130 506 163 472 q 97 585 97 539 q 130 663 97 629 q 208 696 163 696 q 287 663 254 696 q 319 585 319 629 q 287 506 319 539 q 208 472 254 472 m 210 -1 q 131 31 164 -1 q 99 110 99 64 q 131 188 99 156 q 210 221 164 221 q 288 188 256 221 q 321 110 321 156 q 288 31 321 64 q 210 -1 256 -1 z "},";":{"ha":424,"x_min":49,"x_max":324,"o":"m 207 469 q 128 502 161 469 q 96 581 96 535 q 128 659 96 626 q 207 692 161 692 q 285 659 253 692 q 318 581 318 626 q 285 502 318 535 q 207 469 253 469 m 49 -158 l 133 169 l 324 169 l 188 -158 l 49 -158 z "},"…":{"ha":985,"x_min":61,"x_max":924,"o":"m 172 -21 q 94 13 126 -21 q 61 92 61 46 q 94 169 61 136 q 172 203 126 203 q 251 169 218 203 q 283 92 283 136 q 251 13 283 46 q 172 -21 218 -21 m 492 -21 q 413 13 446 -21 q 381 92 381 46 q 413 169 381 136 q 492 203 446 203 q 570 169 538 203 q 603 92 603 136 q 570 13 603 46 q 492 -21 538 -21 m 813 -21 q 734 13 767 -21 q 701 92 701 46 q 734 169 701 136 q 813 203 767 203 q 891 169 858 203 q 924 92 924 136 q 891 13 924 46 q 813 -21 858 -21 z "},"!":{"ha":433,"x_min":106,"x_max":328,"o":"m 128 317 l 115 972 l 318 972 l 306 317 l 128 317 m 217 -21 q 138 12 171 -21 q 106 90 106 44 q 138 169 106 136 q 217 201 171 201 q 295 169 263 201 q 328 90 328 136 q 295 12 328 44 q 217 -21 263 -21 z "},"¡":{"ha":417,"x_min":106,"x_max":328,"o":"m 306 374 l 318 -282 l 115 -282 l 128 374 l 306 374 m 217 711 q 295 678 263 711 q 328 600 328 646 q 295 522 328 554 q 217 489 263 489 q 138 522 171 489 q 106 600 106 554 q 138 678 106 646 q 217 711 171 711 z "},"?":{"ha":713,"x_min":32,"x_max":664,"o":"m 226 279 l 219 524 l 322 531 q 441 572 394 535 q 488 682 488 610 q 444 783 488 743 q 332 824 401 824 q 248 799 283 824 q 199 739 213 775 l 32 786 q 138 933 60 878 q 332 989 217 989 q 504 949 429 989 q 622 841 579 910 q 664 682 664 772 q 632 550 664 608 q 541 456 600 492 q 404 410 482 419 l 401 279 l 226 279 m 314 -21 q 235 12 268 -21 q 203 92 203 44 q 235 170 203 138 q 314 203 268 203 q 392 170 360 203 q 425 92 425 138 q 392 12 425 44 q 314 -21 360 -21 z "},"¿":{"ha":653,"x_min":10,"x_max":643,"o":"m 449 413 l 454 168 l 353 160 q 233 119 279 157 q 188 10 188 81 q 231 -92 188 -51 q 342 -132 274 -132 q 427 -108 392 -132 q 476 -47 463 -83 l 643 -94 q 537 -242 617 -187 q 342 -297 457 -297 q 170 -258 244 -297 q 53 -149 96 -218 q 10 10 10 -79 q 42 142 10 85 q 134 235 75 200 q 271 281 193 271 l 274 413 l 449 413 m 361 711 q 440 678 407 711 q 472 600 472 646 q 440 522 472 554 q 361 489 407 489 q 283 522 315 489 q 250 600 250 554 q 283 678 250 646 q 361 711 315 711 z "},"·":{"ha":361,"x_min":69,"x_max":292,"o":"m 181 357 q 102 390 135 357 q 69 469 69 424 q 102 547 69 514 q 181 581 135 581 q 259 547 226 581 q 292 469 292 514 q 259 390 292 424 q 181 357 226 357 z "},"•":{"ha":650,"x_min":158,"x_max":492,"o":"m 325 231 q 241 253 279 231 q 181 314 203 276 q 158 397 158 351 q 181 480 158 443 q 241 539 203 517 q 325 561 279 561 q 409 539 371 561 q 469 480 447 517 q 492 397 492 443 q 469 314 492 351 q 409 253 447 276 q 325 231 371 231 z "},"*":{"ha":678,"x_min":72,"x_max":606,"o":"m 439 490 l 342 649 l 242 488 l 133 567 l 254 708 l 72 753 l 114 881 l 286 808 l 272 994 l 406 994 l 390 807 l 564 879 l 606 753 l 428 710 l 547 569 l 439 490 z "},"#":{"ha":876,"x_min":14,"x_max":863,"o":"m 446 0 l 485 251 l 321 251 l 282 0 l 147 0 l 186 251 l 14 251 l 32 381 l 207 381 l 236 565 l 60 565 l 82 694 l 257 694 l 300 972 l 435 972 l 392 694 l 556 694 l 599 972 l 733 972 l 690 694 l 863 694 l 840 565 l 669 565 l 640 381 l 813 381 l 794 251 l 619 251 l 581 0 l 446 0 m 342 381 l 506 381 l 535 565 l 371 565 l 342 381 z "},"/":{"ha":600,"x_min":21,"x_max":579,"o":"m 21 -117 l 404 1038 l 579 1038 l 199 -117 l 21 -117 z "},"\\":{"ha":600,"x_min":21,"x_max":579,"o":"m 579 -117 l 401 -117 l 21 1038 l 196 1038 l 579 -117 z "},"-":{"ha":567,"x_min":75,"x_max":492,"o":"m 75 335 l 75 492 l 492 492 l 492 335 l 75 335 z "},"–":{"ha":764,"x_min":0,"x_max":764,"o":"m 0 335 l 0 492 l 764 492 l 764 335 l 0 335 z "},"—":{"ha":1528,"x_min":0,"x_max":1528,"o":"m 0 335 l 0 492 l 1528 492 l 1528 335 l 0 335 z "},"_":{"ha":603,"x_min":24,"x_max":579,"o":"m 24 -157 l 24 0 l 579 0 l 579 -157 l 24 -157 z "},"(":{"ha":531,"x_min":67,"x_max":478,"o":"m 297 -139 q 181 45 233 -54 q 97 256 128 144 q 67 486 67 367 q 97 717 67 607 q 181 927 128 828 q 297 1111 233 1026 l 478 1111 q 361 921 414 1022 q 278 710 308 819 q 247 486 247 601 q 278 263 247 372 q 361 52 308 153 q 478 -139 414 -49 l 297 -139 z "},")":{"ha":531,"x_min":53,"x_max":464,"o":"m 233 -139 l 53 -139 q 170 52 118 -49 q 253 263 222 153 q 283 486 283 372 q 253 710 283 601 q 170 921 222 819 q 53 1111 118 1022 l 233 1111 q 351 927 299 1026 q 433 717 403 828 q 464 486 464 607 q 433 256 464 367 q 351 45 403 144 q 233 -139 299 -54 z "},"{":{"ha":547,"x_min":75,"x_max":472,"o":"m 472 -139 q 340 -121 392 -139 q 259 -58 289 -103 q 217 64 229 -14 q 206 261 206 142 q 194 358 206 324 q 156 405 183 392 q 75 418 128 418 l 75 554 q 156 567 128 554 q 194 615 183 581 q 206 711 206 649 q 217 908 206 831 q 259 1031 229 986 q 340 1093 289 1075 q 472 1111 392 1111 l 472 964 q 406 942 429 964 q 375 866 383 919 q 367 713 367 813 q 342 564 367 617 q 256 492 318 511 q 238 486 247 489 q 256 482 247 483 q 342 409 318 461 q 367 260 367 357 q 376 107 367 161 q 408 31 385 53 q 472 8 431 10 l 472 -139 z "},"}":{"ha":547,"x_min":75,"x_max":472,"o":"m 75 -139 l 75 8 q 141 31 118 10 q 172 107 164 53 q 181 260 181 161 q 204 409 181 357 q 293 482 228 461 q 310 486 300 483 q 293 492 300 489 q 205 564 229 511 q 181 713 181 617 q 172 866 181 813 q 141 942 164 919 q 75 964 118 964 l 75 1111 q 207 1093 156 1111 q 288 1031 258 1075 q 330 908 318 986 q 342 711 342 831 q 353 615 342 649 q 392 567 364 581 q 472 554 419 554 l 472 418 q 392 405 419 418 q 353 358 364 392 q 342 261 342 324 q 330 64 342 142 q 288 -58 318 -14 q 207 -121 258 -103 q 75 -139 156 -139 z "},"[":{"ha":478,"x_min":106,"x_max":400,"o":"m 106 -139 l 106 1111 l 400 1111 l 400 946 l 267 946 l 267 26 l 400 26 l 400 -139 l 106 -139 z "},"]":{"ha":478,"x_min":78,"x_max":372,"o":"m 372 -139 l 78 -139 l 78 26 l 211 26 l 211 946 l 78 946 l 78 1111 l 372 1111 l 372 -139 z "},"‚":{"ha":347,"x_min":40,"x_max":315,"o":"m 40 -158 l 125 169 l 315 169 l 179 -158 l 40 -158 z "},"„":{"ha":565,"x_min":11,"x_max":558,"o":"m 283 -158 l 368 169 l 558 169 l 422 -158 l 283 -158 m 11 -158 l 96 169 l 286 169 l 150 -158 l 11 -158 z "},"“":{"ha":576,"x_min":11,"x_max":558,"o":"m 286 975 l 200 647 l 11 647 l 147 975 l 286 975 m 558 975 l 472 647 l 283 647 l 418 975 l 558 975 z "},"”":{"ha":576,"x_min":18,"x_max":565,"o":"m 290 644 l 375 972 l 565 972 l 429 644 l 290 644 m 18 644 l 103 972 l 293 972 l 157 644 l 18 644 z "},"‘":{"ha":304,"x_min":11,"x_max":286,"o":"m 286 972 l 200 644 l 11 644 l 147 972 l 286 972 z "},"’":{"ha":304,"x_min":18,"x_max":293,"o":"m 18 644 l 103 972 l 293 972 l 157 644 l 18 644 z "},"«":{"ha":878,"x_min":65,"x_max":807,"o":"m 597 133 l 392 414 l 597 694 l 807 694 l 608 414 l 807 133 l 597 133 m 271 133 l 65 414 l 271 694 l 481 694 l 282 414 l 481 133 l 271 133 z "},"»":{"ha":878,"x_min":71,"x_max":813,"o":"m 813 414 l 607 133 l 397 133 l 594 414 l 397 694 l 607 694 l 813 414 m 486 414 l 281 133 l 71 133 l 269 414 l 71 694 l 281 694 l 486 414 z "},"‹":{"ha":556,"x_min":65,"x_max":481,"o":"m 271 133 l 65 414 l 271 694 l 481 694 l 282 414 l 481 133 l 271 133 z "},"›":{"ha":556,"x_min":75,"x_max":490,"o":"m 490 414 l 285 133 l 75 133 l 274 414 l 75 694 l 285 694 l 490 414 z "},"\"":{"ha":572,"x_min":83,"x_max":489,"o":"m 103 639 l 83 994 l 257 994 l 238 639 l 103 639 m 335 639 l 315 994 l 489 994 l 469 639 l 335 639 z "},"'":{"ha":340,"x_min":83,"x_max":257,"o":"m 103 639 l 83 994 l 257 994 l 238 639 l 103 639 z "},"@":{"ha":1378,"x_min":49,"x_max":1329,"o":"m 717 -292 q 447 -244 569 -292 q 236 -111 325 -197 q 98 92 147 -25 q 49 350 49 210 q 97 609 49 492 q 235 813 146 726 q 447 946 325 899 q 717 993 569 993 q 963 946 850 993 q 1157 813 1075 899 q 1284 609 1239 726 q 1329 350 1329 492 q 1292 158 1329 242 q 1192 27 1256 75 q 1044 -21 1128 -21 q 945 1 989 -21 q 878 64 901 24 q 856 121 861 89 q 789 63 826 86 q 633 19 721 19 q 483 62 549 19 q 381 179 418 104 q 344 350 344 254 q 381 521 344 447 q 483 637 418 594 q 633 679 549 679 q 789 638 721 679 q 846 589 821 617 l 844 665 l 997 665 l 997 164 q 1014 115 997 129 q 1057 100 1031 100 q 1128 132 1097 100 q 1176 220 1158 164 q 1193 350 1193 276 q 1158 556 1193 463 q 1059 717 1122 649 q 908 824 996 786 q 717 861 821 861 q 501 824 599 861 q 333 717 404 786 q 224 556 263 649 q 185 350 185 463 q 224 144 185 238 q 333 -17 263 51 q 501 -122 404 -85 q 717 -160 599 -160 q 821 -145 765 -160 q 914 -107 876 -131 l 989 -214 q 854 -270 931 -249 q 717 -292 778 -292 m 690 172 q 774 195 738 172 q 831 258 810 218 q 850 325 846 289 l 849 383 q 829 443 844 415 q 769 505 807 482 q 682 528 732 528 q 597 506 633 528 q 538 444 560 483 q 517 351 517 404 q 540 259 517 300 q 601 195 563 218 q 690 172 639 172 z "},"&":{"ha":899,"x_min":58,"x_max":904,"o":"m 353 -18 q 200 15 267 -18 q 96 107 133 49 q 58 242 58 165 q 78 339 58 294 q 132 422 97 383 q 210 489 167 460 l 257 521 l 238 544 q 176 630 200 593 q 140 698 151 667 q 129 761 129 729 q 165 879 129 828 q 260 960 200 931 q 396 990 321 990 q 542 960 478 990 q 642 878 606 931 q 679 754 679 825 q 650 649 679 697 q 565 553 621 601 q 493 496 533 525 l 564 411 l 656 300 q 682 419 682 353 l 853 419 q 789 193 853 292 q 768 164 779 178 l 904 0 l 690 0 l 644 54 q 613 38 629 46 q 353 -18 500 -18 m 357 400 l 329 381 q 288 346 307 365 q 258 302 269 326 q 247 246 247 278 q 280 168 247 199 q 364 138 313 138 q 479 156 422 138 q 539 181 511 165 l 432 308 l 357 400 m 394 615 q 442 650 415 631 q 487 697 467 669 q 507 758 507 724 q 478 822 507 799 q 404 844 449 844 q 334 821 363 844 q 306 760 306 797 q 328 697 306 724 q 379 633 350 669 l 394 615 z "},"¶":{"ha":813,"x_min":21,"x_max":707,"o":"m 356 322 q 182 365 257 322 q 64 481 107 407 q 21 649 21 554 q 64 817 21 744 q 182 931 107 890 q 356 972 257 972 l 707 972 l 707 -117 l 574 -117 l 574 799 l 508 799 l 508 -117 l 375 -117 l 375 322 l 356 322 z "},"§":{"ha":728,"x_min":81,"x_max":643,"o":"m 371 -126 q 233 -101 294 -126 q 131 -37 171 -76 q 81 49 92 3 l 221 93 q 271 27 233 54 q 363 -1 308 0 q 458 24 422 -1 q 494 93 494 50 q 465 155 494 131 q 386 192 436 179 l 288 217 q 153 291 206 239 q 101 426 101 343 q 174 592 101 532 q 185 601 179 597 q 154 629 168 614 q 101 764 101 681 q 172 929 101 869 q 372 989 243 989 q 498 968 444 989 q 588 909 551 947 q 643 819 625 871 l 504 775 q 456 838 492 813 q 368 864 421 864 q 280 838 311 864 q 249 767 249 813 q 274 710 249 731 q 342 679 300 689 l 440 654 q 590 569 538 631 q 643 433 643 508 q 574 272 643 333 q 558 261 565 267 q 590 232 575 247 q 643 96 643 171 q 573 -65 643 -4 q 371 -126 503 -126 m 415 518 q 363 526 390 526 q 279 501 310 526 q 249 429 249 475 q 274 374 249 394 q 340 343 299 353 l 360 338 q 369 338 365 338 q 460 363 425 338 q 494 431 494 388 q 465 492 494 467 q 415 518 446 507 z "},"©":{"ha":1101,"x_min":49,"x_max":1053,"o":"m 551 -15 q 352 22 444 -15 q 192 128 260 60 q 86 288 124 196 q 49 486 49 379 q 86 686 49 594 q 192 846 124 778 q 352 951 260 914 q 551 989 444 989 q 750 951 658 989 q 910 846 842 914 q 1015 686 978 778 q 1053 486 1053 594 q 1015 288 1053 379 q 910 128 978 196 q 750 22 842 60 q 551 -15 658 -15 m 551 211 q 414 245 472 211 q 324 341 356 279 q 293 486 293 403 q 324 631 293 569 q 413 727 356 693 q 550 761 471 761 q 676 726 617 761 q 768 631 736 690 l 786 594 l 674 551 l 656 578 q 608 622 638 606 q 550 638 579 638 q 456 596 490 638 q 421 486 421 554 q 456 376 421 418 q 551 335 492 335 q 612 355 582 335 q 663 407 642 375 l 674 428 l 790 386 l 775 357 q 681 251 742 290 q 551 211 621 211 m 551 107 q 744 156 661 107 q 876 290 828 204 q 924 486 924 376 q 876 683 924 597 q 744 818 828 769 q 551 867 660 867 q 359 818 443 867 q 226 683 275 769 q 178 486 178 597 q 226 290 178 376 q 359 156 275 204 q 551 107 443 107 z "},"®":{"ha":854,"x_min":42,"x_max":813,"o":"m 428 218 q 277 248 347 218 q 154 331 207 278 q 72 453 101 383 q 42 603 42 524 q 72 753 42 683 q 154 876 101 824 q 277 959 207 929 q 428 989 347 989 q 577 959 507 989 q 700 876 647 929 q 783 753 753 824 q 813 603 813 683 q 783 453 813 524 q 700 331 753 383 q 577 248 647 278 q 428 218 507 218 m 428 310 q 579 347 514 310 q 681 450 644 383 q 718 603 718 517 q 681 757 718 692 q 579 860 644 822 q 428 897 514 897 q 275 860 340 897 q 173 757 210 822 q 136 603 136 692 q 173 450 136 517 q 275 347 210 383 q 428 310 340 310 m 281 411 l 281 815 l 439 817 q 546 779 504 817 q 588 682 588 742 q 567 612 588 643 q 513 564 547 581 l 604 411 l 501 411 l 424 547 l 371 547 l 371 411 l 281 411 m 371 631 l 436 631 q 477 645 461 631 q 493 682 493 660 q 476 719 493 704 q 433 733 460 733 l 371 733 l 371 631 z "},"™":{"ha":1221,"x_min":13,"x_max":1165,"o":"m 861 515 l 694 758 l 694 389 l 557 389 l 557 972 l 708 972 l 861 746 l 1014 972 l 1165 972 l 1165 389 l 1028 389 l 1028 760 l 861 515 m 182 389 l 182 846 l 13 846 l 13 972 l 488 972 l 488 846 l 319 846 l 319 389 l 182 389 z "},"°":{"ha":525,"x_min":53,"x_max":472,"o":"m 263 586 q 158 614 206 586 q 81 689 110 642 q 53 793 53 736 q 81 894 53 849 q 158 967 110 940 q 263 994 206 994 q 367 967 318 994 q 444 894 415 940 q 472 793 472 849 q 444 689 472 736 q 367 614 415 642 q 263 586 319 586 m 263 708 q 316 733 293 708 q 339 793 339 758 q 317 849 339 825 q 263 872 294 872 q 209 849 232 872 q 186 793 186 825 q 209 733 186 758 q 263 708 232 708 z "},"|":{"ha":356,"x_min":106,"x_max":250,"o":"m 106 -306 l 106 1097 l 250 1097 l 250 -306 l 106 -306 z "},"¦":{"ha":422,"x_min":139,"x_max":283,"o":"m 139 486 l 139 1097 l 283 1097 l 283 486 l 139 486 m 139 -306 l 139 306 l 283 306 l 283 -306 l 139 -306 z "},"¢":{"ha":751,"x_min":42,"x_max":731,"o":"m 351 0 l 351 140 q 221 183 281 150 q 89 312 136 229 q 42 500 42 394 q 89 689 42 607 q 219 818 136 771 q 351 860 279 850 l 351 972 l 451 972 l 451 863 q 601 813 532 854 q 726 664 688 761 l 554 603 q 494 668 535 643 q 451 685 474 679 l 451 314 q 497 335 475 321 q 557 404 538 361 l 731 343 q 606 190 690 244 q 451 138 535 146 l 451 0 l 351 0 m 351 317 l 351 685 q 313 668 331 679 q 251 600 274 643 q 229 500 229 557 q 251 401 229 443 q 314 333 274 358 q 351 317 332 322 z "},"¤":{"ha":831,"x_min":94,"x_max":736,"o":"m 418 214 q 279 247 340 214 l 197 165 l 96 268 l 175 349 q 139 486 139 408 q 175 624 139 563 q 176 625 175 624 l 94 704 l 197 807 l 282 724 q 417 756 342 756 q 549 726 489 756 l 633 807 l 736 704 l 657 629 q 660 624 658 626 q 696 486 696 563 q 660 347 696 408 q 658 346 660 346 l 736 268 l 633 165 l 553 246 q 418 214 493 214 m 418 369 q 499 401 468 369 q 529 486 529 433 q 498 569 529 538 q 417 600 467 600 q 337 569 368 600 q 306 486 306 538 q 337 401 306 433 q 418 369 368 369 z "},"$":{"ha":769,"x_min":56,"x_max":713,"o":"m 321 -143 l 321 39 q 233 61 275 46 q 115 136 161 89 q 56 238 68 183 l 225 288 q 282 217 240 246 q 321 196 299 203 l 321 422 l 296 428 q 183 479 232 446 q 108 562 135 513 q 82 676 82 611 q 164 869 82 800 q 321 935 224 921 l 321 1083 l 474 1083 l 474 933 q 542 915 510 926 q 647 847 604 892 q 713 739 690 801 l 543 688 q 490 758 529 728 q 474 768 482 764 l 474 553 l 476 551 q 651 452 589 524 q 713 293 713 381 q 675 156 713 214 q 567 65 638 97 q 474 39 525 47 l 474 -143 l 321 -143 m 321 594 l 321 775 q 294 760 306 768 q 260 681 260 731 q 288 617 260 640 q 321 594 301 603 m 474 201 q 492 213 483 207 q 532 290 532 242 q 500 358 532 329 q 474 376 488 368 l 474 201 z "},"€":{"ha":965,"x_min":19,"x_max":931,"o":"m 553 -17 q 330 48 428 -17 q 178 226 232 113 q 135 356 149 286 l 19 356 l 19 453 l 124 453 q 122 486 122 469 q 124 519 122 503 l 19 519 l 19 617 l 135 617 q 178 747 149 686 q 329 924 232 860 q 551 989 426 989 q 713 955 639 989 q 842 860 786 921 q 926 718 897 799 l 760 653 q 710 738 742 701 q 638 795 678 775 q 551 815 597 815 q 430 773 483 815 q 347 657 376 731 q 333 617 339 638 l 654 617 l 654 519 l 318 519 q 317 486 317 503 q 318 453 317 469 l 654 453 l 654 356 l 333 356 q 347 315 339 335 q 432 199 378 240 q 556 157 486 157 q 644 178 604 157 q 713 238 683 200 q 763 326 743 276 l 931 263 q 844 117 900 181 q 715 19 789 54 q 553 -17 640 -17 z "},"£":{"ha":826,"x_min":61,"x_max":774,"o":"m 160 258 l 160 389 l 61 389 l 61 538 l 160 538 l 160 685 q 199 852 160 785 q 308 954 238 919 q 471 989 378 989 q 628 956 560 989 q 735 858 696 924 q 774 694 774 793 l 589 710 q 555 799 589 767 q 469 831 521 831 q 379 792 414 831 q 344 685 344 753 l 344 538 l 629 538 l 629 389 l 344 389 l 344 275 q 313 174 344 219 l 774 174 l 774 0 l 61 0 l 61 174 l 89 174 q 139 199 118 174 q 160 258 160 224 z "},"¥":{"ha":828,"x_min":10,"x_max":818,"o":"m 319 0 l 319 244 l 121 244 l 121 350 l 319 350 l 319 401 l 121 401 l 121 507 l 268 507 l 10 979 l 224 979 l 414 607 l 604 979 l 818 979 l 560 507 l 706 507 l 706 401 l 510 401 l 510 350 l 706 350 l 706 244 l 510 244 l 510 0 l 319 0 z "},"∕":{"ha":878,"x_min":43,"x_max":835,"o":"m 43 0 l 711 972 l 835 972 l 167 0 l 43 0 z "},"+":{"ha":878,"x_min":118,"x_max":760,"o":"m 365 93 l 365 339 l 118 339 l 118 488 l 365 488 l 365 735 l 514 735 l 514 488 l 760 488 l 760 339 l 514 339 l 514 93 l 365 93 z "},"−":{"ha":878,"x_min":171,"x_max":707,"o":"m 171 338 l 171 489 l 707 489 l 707 338 l 171 338 z "},"×":{"ha":878,"x_min":151,"x_max":726,"o":"m 624 126 l 439 311 l 254 126 l 151 229 l 336 414 l 151 599 l 254 701 l 439 517 l 622 701 l 725 599 l 542 414 l 726 229 l 624 126 z "},"÷":{"ha":878,"x_min":154,"x_max":724,"o":"m 154 338 l 154 489 l 724 489 l 724 338 l 154 338 m 439 103 q 381 127 406 103 q 357 185 357 151 q 381 244 357 219 q 439 268 406 268 q 497 244 472 268 q 522 185 522 219 q 497 127 522 151 q 439 103 472 103 m 439 558 q 381 583 406 558 q 356 642 356 608 q 381 699 356 675 q 439 724 406 724 q 497 699 472 724 q 521 642 521 675 q 497 583 521 608 q 439 558 472 558 z "},"=":{"ha":878,"x_min":161,"x_max":717,"o":"m 161 478 l 161 626 l 717 626 l 717 478 l 161 478 m 161 200 l 161 349 l 717 349 l 717 200 l 161 200 z "},">":{"ha":878,"x_min":183,"x_max":701,"o":"m 183 110 l 183 275 l 524 415 l 183 553 l 183 718 l 701 492 l 701 339 l 183 110 z "},"<":{"ha":878,"x_min":176,"x_max":694,"o":"m 694 719 l 694 554 l 354 414 l 694 276 l 694 110 l 176 336 l 176 490 l 694 719 z "},"±":{"ha":878,"x_min":118,"x_max":760,"o":"m 118 447 l 118 588 l 365 588 l 365 811 l 514 811 l 514 588 l 760 588 l 760 447 l 514 447 l 514 225 l 365 225 l 365 447 l 118 447 m 118 25 l 118 153 l 760 153 l 760 25 l 118 25 z "},"¬":{"ha":878,"x_min":181,"x_max":689,"o":"m 181 388 l 181 539 l 689 539 l 689 224 l 538 224 l 538 388 l 181 388 z "},"~":{"ha":926,"x_min":75,"x_max":851,"o":"m 619 253 q 528 269 568 253 q 459 313 488 286 q 408 369 431 339 q 363 425 385 401 q 310 449 342 449 q 249 422 269 449 q 222 351 229 396 l 75 351 q 107 493 76 431 q 190 591 138 556 q 306 626 242 626 q 436 600 381 626 q 526 508 492 574 q 566 456 542 482 q 619 431 590 431 q 677 456 656 431 q 704 528 699 481 l 851 528 q 819 386 849 449 q 738 288 789 324 q 619 253 686 253 z "},"^":{"ha":807,"x_min":103,"x_max":704,"o":"m 543 518 l 403 801 l 265 518 l 103 518 l 318 972 l 486 972 l 704 518 l 543 518 z "},"µ":{"ha":789,"x_min":67,"x_max":710,"o":"m 378 -17 q 233 51 288 -17 l 233 -278 l 67 -278 l 67 694 l 250 694 l 250 339 q 266 230 250 269 q 312 173 282 190 q 379 156 342 156 q 489 199 451 154 q 526 331 526 244 l 526 694 l 710 694 l 710 0 l 538 0 l 532 68 q 378 -17 478 -17 z "},"%":{"ha":1129,"x_min":57,"x_max":1072,"o":"m 125 0 l 815 972 l 999 972 l 304 0 l 125 0 m 846 -21 q 729 10 781 -21 q 649 95 678 40 q 621 219 621 150 q 649 344 621 290 q 729 429 678 399 q 846 460 781 460 q 963 428 913 460 q 1043 344 1014 397 q 1072 219 1072 290 q 1043 95 1072 150 q 963 10 1014 40 q 846 -21 913 -21 m 846 101 q 915 135 889 101 q 942 219 942 169 q 915 303 942 269 q 846 338 889 338 q 777 303 804 338 q 750 219 750 269 q 777 135 750 169 q 846 101 804 101 m 283 514 q 166 544 217 514 q 86 630 115 575 q 57 754 57 685 q 85 879 57 825 q 165 964 114 933 q 283 994 217 994 q 401 963 350 994 q 480 878 451 932 q 508 754 508 825 q 480 630 508 685 q 400 544 451 575 q 283 514 349 514 m 282 636 q 352 670 325 636 q 379 754 379 704 q 352 838 379 804 q 282 871 325 871 q 214 838 240 871 q 188 754 188 804 q 214 670 188 704 q 282 636 240 636 z "},"↑":{"ha":1018,"x_min":125,"x_max":893,"o":"m 589 0 l 432 0 l 432 679 l 238 485 l 125 593 l 513 989 l 893 589 l 779 482 l 589 676 l 589 0 z "},"↓":{"ha":1018,"x_min":125,"x_max":893,"o":"m 589 972 l 589 296 l 779 490 l 893 383 l 513 -17 l 125 379 l 238 488 l 432 293 l 432 972 l 589 972 z "},"̈":{"ha":0,"x_min":33,"x_max":583,"o":"m 488 824 q 422 853 450 824 q 393 919 393 882 q 422 987 393 958 q 488 1015 450 1015 q 555 987 526 1015 q 583 919 583 958 q 555 853 583 882 q 488 824 526 824 m 129 824 q 62 852 90 824 q 33 919 33 881 q 62 988 33 960 q 129 1015 90 1015 q 196 988 168 1015 q 224 919 224 960 q 196 852 224 881 q 129 824 168 824 z "},"̀":{"ha":0,"x_min":113,"x_max":479,"o":"m 294 781 l 113 974 l 318 974 l 479 781 l 294 781 z "},"́":{"ha":0,"x_min":333,"x_max":697,"o":"m 333 781 l 492 972 l 697 972 l 518 781 l 333 781 z "},"̃":{"ha":0,"x_min":124,"x_max":640,"o":"m 475 763 q 402 778 429 763 q 360 813 375 793 q 331 847 344 832 q 296 863 317 863 q 267 853 279 863 q 247 810 256 843 l 124 810 q 151 905 131 867 q 206 963 171 943 q 290 982 242 982 q 366 967 339 982 q 410 932 393 951 q 440 897 426 913 q 475 882 454 882 q 505 897 496 882 q 517 936 514 913 l 640 936 q 591 810 631 858 q 475 763 551 763 z "},"̄":{"ha":0,"x_min":-17,"x_max":433,"o":"m -17 779 l -17 938 l 433 938 l 433 779 l -17 779 z "},"¨":{"ha":672,"x_min":61,"x_max":611,"o":"m 515 824 q 449 853 478 824 q 421 919 421 882 q 449 987 421 958 q 515 1015 478 1015 q 583 987 554 1015 q 611 919 611 958 q 583 853 611 882 q 515 824 554 824 m 157 824 q 90 852 118 824 q 61 919 61 881 q 90 988 61 960 q 157 1015 118 1015 q 224 988 196 1015 q 251 919 251 960 q 224 852 251 881 q 157 824 196 824 z "},"`":{"ha":365,"x_min":0,"x_max":367,"o":"m 182 781 l 0 974 l 206 974 l 367 781 l 182 781 z "},"´":{"ha":365,"x_min":3,"x_max":365,"o":"m 1 781 l 160 972 l 365 972 l 186 781 l 1 781 z "},"ˆ":{"ha":563,"x_min":14,"x_max":549,"o":"m 382 796 l 282 890 l 181 796 l 14 796 l 186 989 l 376 989 l 549 796 l 382 796 z "},"˚":{"ha":653,"x_min":189,"x_max":515,"o":"m 353 747 q 272 768 310 747 q 212 824 235 789 q 189 901 189 858 q 212 981 189 946 q 272 1036 235 1015 q 353 1057 308 1057 q 434 1036 397 1057 q 493 981 471 1015 q 515 901 515 946 q 493 824 515 858 q 434 768 471 789 q 353 747 397 747 m 353 853 q 400 901 400 853 q 353 951 400 951 q 304 901 304 951 q 353 853 304 853 z "},"˜":{"ha":544,"x_min":14,"x_max":531,"o":"m 365 763 q 292 778 319 763 q 250 813 265 793 q 221 847 235 832 q 186 863 207 863 q 158 853 169 863 q 138 810 146 843 l 14 810 q 41 905 21 867 q 97 963 61 943 q 181 982 132 982 q 256 967 229 982 q 300 932 283 951 q 331 897 317 913 q 365 882 344 882 q 395 897 386 882 q 407 936 404 913 l 531 936 q 481 810 521 858 q 365 763 442 763 z "},"¯":{"ha":417,"x_min":-17,"x_max":433,"o":"m -17 779 l -17 938 l 433 938 l 433 779 l -17 779 z "},"¸":{"ha":326,"x_min":14,"x_max":313,"o":"m 147 -292 q 83 -282 117 -292 q 14 -251 50 -272 l 42 -164 q 83 -182 63 -175 q 119 -189 103 -189 q 160 -181 143 -189 q 176 -151 176 -172 q 153 -110 176 -124 q 86 -93 131 -96 l 128 8 l 233 0 l 215 -40 q 288 -88 264 -57 q 313 -157 313 -119 q 271 -254 313 -217 q 147 -292 229 -292 z "}}}
